<?xml version="1.0" encoding="utf-8" standalone="no"?>
<!DOCTYPE svg PUBLIC "-//W3C//DTD SVG 1.1//EN"
  "http://www.w3.org/Graphics/SVG/1.1/DTD/svg11.dtd">
<svg xmlns:xlink="http://www.w3.org/1999/xlink" width="460.8pt" height="345.6pt" viewBox="0 0 460.8 345.6" xmlns="http://www.w3.org/2000/svg" version="1.1">
 <metadata>
  <rdf:RDF xmlns:dc="http://purl.org/dc/elements/1.1/" xmlns:cc="http://creativecommons.org/ns#" xmlns:rdf="http://www.w3.org/1999/02/22-rdf-syntax-ns#">
   <cc:Work>
    <dc:type rdf:resource="http://purl.org/dc/dcmitype/StillImage"/>
    <dc:date>2022-05-23T18:24:27.588251</dc:date>
    <dc:format>image/svg+xml</dc:format>
    <dc:creator>
     <cc:Agent>
      <dc:title>Matplotlib v3.5.2, https://matplotlib.org/</dc:title>
     </cc:Agent>
    </dc:creator>
   </cc:Work>
  </rdf:RDF>
 </metadata>
 <defs>
  <style type="text/css">*{stroke-linejoin: round; stroke-linecap: butt}</style>
 </defs>
 <g id="figure_1">
  <g id="patch_1">
   <path d="M 0 345.6 
L 460.8 345.6 
L 460.8 0 
L 0 0 
z
" style="fill: #ffffff"/>
  </g>
  <g id="axes_1">
   <g id="patch_2">
    <path d="M 57.6 307.584 
L 414.72 307.584 
L 414.72 41.472 
L 57.6 41.472 
z
" style="fill: #ffffff"/>
   </g>
   <g id="matplotlib.axis_1">
    <g id="xtick_1">
     <g id="line2d_1">
      <defs>
       <path id="mfb522f52d6" d="M 0 0 
L 0 3.5 
" style="stroke: #000000; stroke-width: 0.8"/>
      </defs>
      <g>
       <use xlink:href="#mfb522f52d6" x="63.36" y="307.584" style="stroke: #000000; stroke-width: 0.8"/>
      </g>
     </g>
     <g id="text_1">
      <!-- 0 -->
      <g transform="translate(60.17875 322.182437)scale(0.1 -0.1)">
       <defs>
        <path id="DejaVuSans-30" d="M 2034 4250 
Q 1547 4250 1301 3770 
Q 1056 3291 1056 2328 
Q 1056 1369 1301 889 
Q 1547 409 2034 409 
Q 2525 409 2770 889 
Q 3016 1369 3016 2328 
Q 3016 3291 2770 3770 
Q 2525 4250 2034 4250 
z
M 2034 4750 
Q 2819 4750 3233 4129 
Q 3647 3509 3647 2328 
Q 3647 1150 3233 529 
Q 2819 -91 2034 -91 
Q 1250 -91 836 529 
Q 422 1150 422 2328 
Q 422 3509 836 4129 
Q 1250 4750 2034 4750 
z
" transform="scale(0.015625)"/>
       </defs>
       <use xlink:href="#DejaVuSans-30"/>
      </g>
     </g>
    </g>
    <g id="xtick_2">
     <g id="line2d_2">
      <g>
       <use xlink:href="#mfb522f52d6" x="115.723636" y="307.584" style="stroke: #000000; stroke-width: 0.8"/>
      </g>
     </g>
     <g id="text_2">
      <!-- 50 -->
      <g transform="translate(109.361136 322.182437)scale(0.1 -0.1)">
       <defs>
        <path id="DejaVuSans-35" d="M 691 4666 
L 3169 4666 
L 3169 4134 
L 1269 4134 
L 1269 2991 
Q 1406 3038 1543 3061 
Q 1681 3084 1819 3084 
Q 2600 3084 3056 2656 
Q 3513 2228 3513 1497 
Q 3513 744 3044 326 
Q 2575 -91 1722 -91 
Q 1428 -91 1123 -41 
Q 819 9 494 109 
L 494 744 
Q 775 591 1075 516 
Q 1375 441 1709 441 
Q 2250 441 2565 725 
Q 2881 1009 2881 1497 
Q 2881 1984 2565 2268 
Q 2250 2553 1709 2553 
Q 1456 2553 1204 2497 
Q 953 2441 691 2322 
L 691 4666 
z
" transform="scale(0.015625)"/>
       </defs>
       <use xlink:href="#DejaVuSans-35"/>
       <use xlink:href="#DejaVuSans-30" x="63.623047"/>
      </g>
     </g>
    </g>
    <g id="xtick_3">
     <g id="line2d_3">
      <g>
       <use xlink:href="#mfb522f52d6" x="168.087273" y="307.584" style="stroke: #000000; stroke-width: 0.8"/>
      </g>
     </g>
     <g id="text_3">
      <!-- 100 -->
      <g transform="translate(158.543523 322.182437)scale(0.1 -0.1)">
       <defs>
        <path id="DejaVuSans-31" d="M 794 531 
L 1825 531 
L 1825 4091 
L 703 3866 
L 703 4441 
L 1819 4666 
L 2450 4666 
L 2450 531 
L 3481 531 
L 3481 0 
L 794 0 
L 794 531 
z
" transform="scale(0.015625)"/>
       </defs>
       <use xlink:href="#DejaVuSans-31"/>
       <use xlink:href="#DejaVuSans-30" x="63.623047"/>
       <use xlink:href="#DejaVuSans-30" x="127.246094"/>
      </g>
     </g>
    </g>
    <g id="xtick_4">
     <g id="line2d_4">
      <g>
       <use xlink:href="#mfb522f52d6" x="220.450909" y="307.584" style="stroke: #000000; stroke-width: 0.8"/>
      </g>
     </g>
     <g id="text_4">
      <!-- 150 -->
      <g transform="translate(210.907159 322.182437)scale(0.1 -0.1)">
       <use xlink:href="#DejaVuSans-31"/>
       <use xlink:href="#DejaVuSans-35" x="63.623047"/>
       <use xlink:href="#DejaVuSans-30" x="127.246094"/>
      </g>
     </g>
    </g>
    <g id="xtick_5">
     <g id="line2d_5">
      <g>
       <use xlink:href="#mfb522f52d6" x="272.814545" y="307.584" style="stroke: #000000; stroke-width: 0.8"/>
      </g>
     </g>
     <g id="text_5">
      <!-- 200 -->
      <g transform="translate(263.270795 322.182437)scale(0.1 -0.1)">
       <defs>
        <path id="DejaVuSans-32" d="M 1228 531 
L 3431 531 
L 3431 0 
L 469 0 
L 469 531 
Q 828 903 1448 1529 
Q 2069 2156 2228 2338 
Q 2531 2678 2651 2914 
Q 2772 3150 2772 3378 
Q 2772 3750 2511 3984 
Q 2250 4219 1831 4219 
Q 1534 4219 1204 4116 
Q 875 4013 500 3803 
L 500 4441 
Q 881 4594 1212 4672 
Q 1544 4750 1819 4750 
Q 2544 4750 2975 4387 
Q 3406 4025 3406 3419 
Q 3406 3131 3298 2873 
Q 3191 2616 2906 2266 
Q 2828 2175 2409 1742 
Q 1991 1309 1228 531 
z
" transform="scale(0.015625)"/>
       </defs>
       <use xlink:href="#DejaVuSans-32"/>
       <use xlink:href="#DejaVuSans-30" x="63.623047"/>
       <use xlink:href="#DejaVuSans-30" x="127.246094"/>
      </g>
     </g>
    </g>
    <g id="xtick_6">
     <g id="line2d_6">
      <g>
       <use xlink:href="#mfb522f52d6" x="325.178182" y="307.584" style="stroke: #000000; stroke-width: 0.8"/>
      </g>
     </g>
     <g id="text_6">
      <!-- 250 -->
      <g transform="translate(315.634432 322.182437)scale(0.1 -0.1)">
       <use xlink:href="#DejaVuSans-32"/>
       <use xlink:href="#DejaVuSans-35" x="63.623047"/>
       <use xlink:href="#DejaVuSans-30" x="127.246094"/>
      </g>
     </g>
    </g>
    <g id="xtick_7">
     <g id="line2d_7">
      <g>
       <use xlink:href="#mfb522f52d6" x="377.541818" y="307.584" style="stroke: #000000; stroke-width: 0.8"/>
      </g>
     </g>
     <g id="text_7">
      <!-- 300 -->
      <g transform="translate(367.998068 322.182437)scale(0.1 -0.1)">
       <defs>
        <path id="DejaVuSans-33" d="M 2597 2516 
Q 3050 2419 3304 2112 
Q 3559 1806 3559 1356 
Q 3559 666 3084 287 
Q 2609 -91 1734 -91 
Q 1441 -91 1130 -33 
Q 819 25 488 141 
L 488 750 
Q 750 597 1062 519 
Q 1375 441 1716 441 
Q 2309 441 2620 675 
Q 2931 909 2931 1356 
Q 2931 1769 2642 2001 
Q 2353 2234 1838 2234 
L 1294 2234 
L 1294 2753 
L 1863 2753 
Q 2328 2753 2575 2939 
Q 2822 3125 2822 3475 
Q 2822 3834 2567 4026 
Q 2313 4219 1838 4219 
Q 1578 4219 1281 4162 
Q 984 4106 628 3988 
L 628 4550 
Q 988 4650 1302 4700 
Q 1616 4750 1894 4750 
Q 2613 4750 3031 4423 
Q 3450 4097 3450 3541 
Q 3450 3153 3228 2886 
Q 3006 2619 2597 2516 
z
" transform="scale(0.015625)"/>
       </defs>
       <use xlink:href="#DejaVuSans-33"/>
       <use xlink:href="#DejaVuSans-30" x="63.623047"/>
       <use xlink:href="#DejaVuSans-30" x="127.246094"/>
      </g>
     </g>
    </g>
    <g id="text_8">
     <!-- Número de units -->
     <g transform="translate(194.581094 335.860562)scale(0.1 -0.1)">
      <defs>
       <path id="DejaVuSans-4e" d="M 628 4666 
L 1478 4666 
L 3547 763 
L 3547 4666 
L 4159 4666 
L 4159 0 
L 3309 0 
L 1241 3903 
L 1241 0 
L 628 0 
L 628 4666 
z
" transform="scale(0.015625)"/>
       <path id="DejaVuSans-fa" d="M 544 1381 
L 544 3500 
L 1119 3500 
L 1119 1403 
Q 1119 906 1312 657 
Q 1506 409 1894 409 
Q 2359 409 2629 706 
Q 2900 1003 2900 1516 
L 2900 3500 
L 3475 3500 
L 3475 0 
L 2900 0 
L 2900 538 
Q 2691 219 2414 64 
Q 2138 -91 1772 -91 
Q 1169 -91 856 284 
Q 544 659 544 1381 
z
M 1991 3584 
L 1991 3584 
z
M 2418 5119 
L 3040 5119 
L 2022 3944 
L 1543 3944 
L 2418 5119 
z
" transform="scale(0.015625)"/>
       <path id="DejaVuSans-6d" d="M 3328 2828 
Q 3544 3216 3844 3400 
Q 4144 3584 4550 3584 
Q 5097 3584 5394 3201 
Q 5691 2819 5691 2113 
L 5691 0 
L 5113 0 
L 5113 2094 
Q 5113 2597 4934 2840 
Q 4756 3084 4391 3084 
Q 3944 3084 3684 2787 
Q 3425 2491 3425 1978 
L 3425 0 
L 2847 0 
L 2847 2094 
Q 2847 2600 2669 2842 
Q 2491 3084 2119 3084 
Q 1678 3084 1418 2786 
Q 1159 2488 1159 1978 
L 1159 0 
L 581 0 
L 581 3500 
L 1159 3500 
L 1159 2956 
Q 1356 3278 1631 3431 
Q 1906 3584 2284 3584 
Q 2666 3584 2933 3390 
Q 3200 3197 3328 2828 
z
" transform="scale(0.015625)"/>
       <path id="DejaVuSans-65" d="M 3597 1894 
L 3597 1613 
L 953 1613 
Q 991 1019 1311 708 
Q 1631 397 2203 397 
Q 2534 397 2845 478 
Q 3156 559 3463 722 
L 3463 178 
Q 3153 47 2828 -22 
Q 2503 -91 2169 -91 
Q 1331 -91 842 396 
Q 353 884 353 1716 
Q 353 2575 817 3079 
Q 1281 3584 2069 3584 
Q 2775 3584 3186 3129 
Q 3597 2675 3597 1894 
z
M 3022 2063 
Q 3016 2534 2758 2815 
Q 2500 3097 2075 3097 
Q 1594 3097 1305 2825 
Q 1016 2553 972 2059 
L 3022 2063 
z
" transform="scale(0.015625)"/>
       <path id="DejaVuSans-72" d="M 2631 2963 
Q 2534 3019 2420 3045 
Q 2306 3072 2169 3072 
Q 1681 3072 1420 2755 
Q 1159 2438 1159 1844 
L 1159 0 
L 581 0 
L 581 3500 
L 1159 3500 
L 1159 2956 
Q 1341 3275 1631 3429 
Q 1922 3584 2338 3584 
Q 2397 3584 2469 3576 
Q 2541 3569 2628 3553 
L 2631 2963 
z
" transform="scale(0.015625)"/>
       <path id="DejaVuSans-6f" d="M 1959 3097 
Q 1497 3097 1228 2736 
Q 959 2375 959 1747 
Q 959 1119 1226 758 
Q 1494 397 1959 397 
Q 2419 397 2687 759 
Q 2956 1122 2956 1747 
Q 2956 2369 2687 2733 
Q 2419 3097 1959 3097 
z
M 1959 3584 
Q 2709 3584 3137 3096 
Q 3566 2609 3566 1747 
Q 3566 888 3137 398 
Q 2709 -91 1959 -91 
Q 1206 -91 779 398 
Q 353 888 353 1747 
Q 353 2609 779 3096 
Q 1206 3584 1959 3584 
z
" transform="scale(0.015625)"/>
       <path id="DejaVuSans-20" transform="scale(0.015625)"/>
       <path id="DejaVuSans-64" d="M 2906 2969 
L 2906 4863 
L 3481 4863 
L 3481 0 
L 2906 0 
L 2906 525 
Q 2725 213 2448 61 
Q 2172 -91 1784 -91 
Q 1150 -91 751 415 
Q 353 922 353 1747 
Q 353 2572 751 3078 
Q 1150 3584 1784 3584 
Q 2172 3584 2448 3432 
Q 2725 3281 2906 2969 
z
M 947 1747 
Q 947 1113 1208 752 
Q 1469 391 1925 391 
Q 2381 391 2643 752 
Q 2906 1113 2906 1747 
Q 2906 2381 2643 2742 
Q 2381 3103 1925 3103 
Q 1469 3103 1208 2742 
Q 947 2381 947 1747 
z
" transform="scale(0.015625)"/>
       <path id="DejaVuSans-75" d="M 544 1381 
L 544 3500 
L 1119 3500 
L 1119 1403 
Q 1119 906 1312 657 
Q 1506 409 1894 409 
Q 2359 409 2629 706 
Q 2900 1003 2900 1516 
L 2900 3500 
L 3475 3500 
L 3475 0 
L 2900 0 
L 2900 538 
Q 2691 219 2414 64 
Q 2138 -91 1772 -91 
Q 1169 -91 856 284 
Q 544 659 544 1381 
z
M 1991 3584 
L 1991 3584 
z
" transform="scale(0.015625)"/>
       <path id="DejaVuSans-6e" d="M 3513 2113 
L 3513 0 
L 2938 0 
L 2938 2094 
Q 2938 2591 2744 2837 
Q 2550 3084 2163 3084 
Q 1697 3084 1428 2787 
Q 1159 2491 1159 1978 
L 1159 0 
L 581 0 
L 581 3500 
L 1159 3500 
L 1159 2956 
Q 1366 3272 1645 3428 
Q 1925 3584 2291 3584 
Q 2894 3584 3203 3211 
Q 3513 2838 3513 2113 
z
" transform="scale(0.015625)"/>
       <path id="DejaVuSans-69" d="M 603 3500 
L 1178 3500 
L 1178 0 
L 603 0 
L 603 3500 
z
M 603 4863 
L 1178 4863 
L 1178 4134 
L 603 4134 
L 603 4863 
z
" transform="scale(0.015625)"/>
       <path id="DejaVuSans-74" d="M 1172 4494 
L 1172 3500 
L 2356 3500 
L 2356 3053 
L 1172 3053 
L 1172 1153 
Q 1172 725 1289 603 
Q 1406 481 1766 481 
L 2356 481 
L 2356 0 
L 1766 0 
Q 1100 0 847 248 
Q 594 497 594 1153 
L 594 3053 
L 172 3053 
L 172 3500 
L 594 3500 
L 594 4494 
L 1172 4494 
z
" transform="scale(0.015625)"/>
       <path id="DejaVuSans-73" d="M 2834 3397 
L 2834 2853 
Q 2591 2978 2328 3040 
Q 2066 3103 1784 3103 
Q 1356 3103 1142 2972 
Q 928 2841 928 2578 
Q 928 2378 1081 2264 
Q 1234 2150 1697 2047 
L 1894 2003 
Q 2506 1872 2764 1633 
Q 3022 1394 3022 966 
Q 3022 478 2636 193 
Q 2250 -91 1575 -91 
Q 1294 -91 989 -36 
Q 684 19 347 128 
L 347 722 
Q 666 556 975 473 
Q 1284 391 1588 391 
Q 1994 391 2212 530 
Q 2431 669 2431 922 
Q 2431 1156 2273 1281 
Q 2116 1406 1581 1522 
L 1381 1569 
Q 847 1681 609 1914 
Q 372 2147 372 2553 
Q 372 3047 722 3315 
Q 1072 3584 1716 3584 
Q 2034 3584 2315 3537 
Q 2597 3491 2834 3397 
z
" transform="scale(0.015625)"/>
      </defs>
      <use xlink:href="#DejaVuSans-4e"/>
      <use xlink:href="#DejaVuSans-fa" x="74.804688"/>
      <use xlink:href="#DejaVuSans-6d" x="138.183594"/>
      <use xlink:href="#DejaVuSans-65" x="235.595703"/>
      <use xlink:href="#DejaVuSans-72" x="297.119141"/>
      <use xlink:href="#DejaVuSans-6f" x="335.982422"/>
      <use xlink:href="#DejaVuSans-20" x="397.164062"/>
      <use xlink:href="#DejaVuSans-64" x="428.951172"/>
      <use xlink:href="#DejaVuSans-65" x="492.427734"/>
      <use xlink:href="#DejaVuSans-20" x="553.951172"/>
      <use xlink:href="#DejaVuSans-75" x="585.738281"/>
      <use xlink:href="#DejaVuSans-6e" x="649.117188"/>
      <use xlink:href="#DejaVuSans-69" x="712.496094"/>
      <use xlink:href="#DejaVuSans-74" x="740.279297"/>
      <use xlink:href="#DejaVuSans-73" x="779.488281"/>
     </g>
    </g>
   </g>
   <g id="matplotlib.axis_2">
    <g id="ytick_1">
     <g id="line2d_8">
      <defs>
       <path id="m4feb81cb61" d="M 0 0 
L -3.5 0 
" style="stroke: #000000; stroke-width: 0.8"/>
      </defs>
      <g>
       <use xlink:href="#m4feb81cb61" x="57.6" y="295.505868" style="stroke: #000000; stroke-width: 0.8"/>
      </g>
     </g>
     <g id="text_9">
      <!-- 0 -->
      <g transform="translate(44.2375 299.305086)scale(0.1 -0.1)">
       <use xlink:href="#DejaVuSans-30"/>
      </g>
     </g>
    </g>
    <g id="ytick_2">
     <g id="line2d_9">
      <g>
       <use xlink:href="#m4feb81cb61" x="57.6" y="248.252378" style="stroke: #000000; stroke-width: 0.8"/>
      </g>
     </g>
     <g id="text_10">
      <!-- 20000 -->
      <g transform="translate(18.7875 252.051597)scale(0.1 -0.1)">
       <use xlink:href="#DejaVuSans-32"/>
       <use xlink:href="#DejaVuSans-30" x="63.623047"/>
       <use xlink:href="#DejaVuSans-30" x="127.246094"/>
       <use xlink:href="#DejaVuSans-30" x="190.869141"/>
       <use xlink:href="#DejaVuSans-30" x="254.492188"/>
      </g>
     </g>
    </g>
    <g id="ytick_3">
     <g id="line2d_10">
      <g>
       <use xlink:href="#m4feb81cb61" x="57.6" y="200.998888" style="stroke: #000000; stroke-width: 0.8"/>
      </g>
     </g>
     <g id="text_11">
      <!-- 40000 -->
      <g transform="translate(18.7875 204.798107)scale(0.1 -0.1)">
       <defs>
        <path id="DejaVuSans-34" d="M 2419 4116 
L 825 1625 
L 2419 1625 
L 2419 4116 
z
M 2253 4666 
L 3047 4666 
L 3047 1625 
L 3713 1625 
L 3713 1100 
L 3047 1100 
L 3047 0 
L 2419 0 
L 2419 1100 
L 313 1100 
L 313 1709 
L 2253 4666 
z
" transform="scale(0.015625)"/>
       </defs>
       <use xlink:href="#DejaVuSans-34"/>
       <use xlink:href="#DejaVuSans-30" x="63.623047"/>
       <use xlink:href="#DejaVuSans-30" x="127.246094"/>
       <use xlink:href="#DejaVuSans-30" x="190.869141"/>
       <use xlink:href="#DejaVuSans-30" x="254.492188"/>
      </g>
     </g>
    </g>
    <g id="ytick_4">
     <g id="line2d_11">
      <g>
       <use xlink:href="#m4feb81cb61" x="57.6" y="153.745398" style="stroke: #000000; stroke-width: 0.8"/>
      </g>
     </g>
     <g id="text_12">
      <!-- 60000 -->
      <g transform="translate(18.7875 157.544617)scale(0.1 -0.1)">
       <defs>
        <path id="DejaVuSans-36" d="M 2113 2584 
Q 1688 2584 1439 2293 
Q 1191 2003 1191 1497 
Q 1191 994 1439 701 
Q 1688 409 2113 409 
Q 2538 409 2786 701 
Q 3034 994 3034 1497 
Q 3034 2003 2786 2293 
Q 2538 2584 2113 2584 
z
M 3366 4563 
L 3366 3988 
Q 3128 4100 2886 4159 
Q 2644 4219 2406 4219 
Q 1781 4219 1451 3797 
Q 1122 3375 1075 2522 
Q 1259 2794 1537 2939 
Q 1816 3084 2150 3084 
Q 2853 3084 3261 2657 
Q 3669 2231 3669 1497 
Q 3669 778 3244 343 
Q 2819 -91 2113 -91 
Q 1303 -91 875 529 
Q 447 1150 447 2328 
Q 447 3434 972 4092 
Q 1497 4750 2381 4750 
Q 2619 4750 2861 4703 
Q 3103 4656 3366 4563 
z
" transform="scale(0.015625)"/>
       </defs>
       <use xlink:href="#DejaVuSans-36"/>
       <use xlink:href="#DejaVuSans-30" x="63.623047"/>
       <use xlink:href="#DejaVuSans-30" x="127.246094"/>
       <use xlink:href="#DejaVuSans-30" x="190.869141"/>
       <use xlink:href="#DejaVuSans-30" x="254.492188"/>
      </g>
     </g>
    </g>
    <g id="ytick_5">
     <g id="line2d_12">
      <g>
       <use xlink:href="#m4feb81cb61" x="57.6" y="106.491909" style="stroke: #000000; stroke-width: 0.8"/>
      </g>
     </g>
     <g id="text_13">
      <!-- 80000 -->
      <g transform="translate(18.7875 110.291127)scale(0.1 -0.1)">
       <defs>
        <path id="DejaVuSans-38" d="M 2034 2216 
Q 1584 2216 1326 1975 
Q 1069 1734 1069 1313 
Q 1069 891 1326 650 
Q 1584 409 2034 409 
Q 2484 409 2743 651 
Q 3003 894 3003 1313 
Q 3003 1734 2745 1975 
Q 2488 2216 2034 2216 
z
M 1403 2484 
Q 997 2584 770 2862 
Q 544 3141 544 3541 
Q 544 4100 942 4425 
Q 1341 4750 2034 4750 
Q 2731 4750 3128 4425 
Q 3525 4100 3525 3541 
Q 3525 3141 3298 2862 
Q 3072 2584 2669 2484 
Q 3125 2378 3379 2068 
Q 3634 1759 3634 1313 
Q 3634 634 3220 271 
Q 2806 -91 2034 -91 
Q 1263 -91 848 271 
Q 434 634 434 1313 
Q 434 1759 690 2068 
Q 947 2378 1403 2484 
z
M 1172 3481 
Q 1172 3119 1398 2916 
Q 1625 2713 2034 2713 
Q 2441 2713 2670 2916 
Q 2900 3119 2900 3481 
Q 2900 3844 2670 4047 
Q 2441 4250 2034 4250 
Q 1625 4250 1398 4047 
Q 1172 3844 1172 3481 
z
" transform="scale(0.015625)"/>
       </defs>
       <use xlink:href="#DejaVuSans-38"/>
       <use xlink:href="#DejaVuSans-30" x="63.623047"/>
       <use xlink:href="#DejaVuSans-30" x="127.246094"/>
       <use xlink:href="#DejaVuSans-30" x="190.869141"/>
       <use xlink:href="#DejaVuSans-30" x="254.492188"/>
      </g>
     </g>
    </g>
    <g id="ytick_6">
     <g id="line2d_13">
      <g>
       <use xlink:href="#m4feb81cb61" x="57.6" y="59.238419" style="stroke: #000000; stroke-width: 0.8"/>
      </g>
     </g>
     <g id="text_14">
      <!-- 100000 -->
      <g transform="translate(12.425 63.037638)scale(0.1 -0.1)">
       <use xlink:href="#DejaVuSans-31"/>
       <use xlink:href="#DejaVuSans-30" x="63.623047"/>
       <use xlink:href="#DejaVuSans-30" x="127.246094"/>
       <use xlink:href="#DejaVuSans-30" x="190.869141"/>
       <use xlink:href="#DejaVuSans-30" x="254.492188"/>
       <use xlink:href="#DejaVuSans-30" x="318.115234"/>
      </g>
     </g>
    </g>
    <g id="text_15">
     <!-- Tempo de execução da aplicação em micro segundos -->
     <g transform="translate(6.345312 307.875656)rotate(-90)scale(0.1 -0.1)">
      <defs>
       <path id="DejaVuSans-54" d="M -19 4666 
L 3928 4666 
L 3928 4134 
L 2272 4134 
L 2272 0 
L 1638 0 
L 1638 4134 
L -19 4134 
L -19 4666 
z
" transform="scale(0.015625)"/>
       <path id="DejaVuSans-70" d="M 1159 525 
L 1159 -1331 
L 581 -1331 
L 581 3500 
L 1159 3500 
L 1159 2969 
Q 1341 3281 1617 3432 
Q 1894 3584 2278 3584 
Q 2916 3584 3314 3078 
Q 3713 2572 3713 1747 
Q 3713 922 3314 415 
Q 2916 -91 2278 -91 
Q 1894 -91 1617 61 
Q 1341 213 1159 525 
z
M 3116 1747 
Q 3116 2381 2855 2742 
Q 2594 3103 2138 3103 
Q 1681 3103 1420 2742 
Q 1159 2381 1159 1747 
Q 1159 1113 1420 752 
Q 1681 391 2138 391 
Q 2594 391 2855 752 
Q 3116 1113 3116 1747 
z
" transform="scale(0.015625)"/>
       <path id="DejaVuSans-78" d="M 3513 3500 
L 2247 1797 
L 3578 0 
L 2900 0 
L 1881 1375 
L 863 0 
L 184 0 
L 1544 1831 
L 300 3500 
L 978 3500 
L 1906 2253 
L 2834 3500 
L 3513 3500 
z
" transform="scale(0.015625)"/>
       <path id="DejaVuSans-63" d="M 3122 3366 
L 3122 2828 
Q 2878 2963 2633 3030 
Q 2388 3097 2138 3097 
Q 1578 3097 1268 2742 
Q 959 2388 959 1747 
Q 959 1106 1268 751 
Q 1578 397 2138 397 
Q 2388 397 2633 464 
Q 2878 531 3122 666 
L 3122 134 
Q 2881 22 2623 -34 
Q 2366 -91 2075 -91 
Q 1284 -91 818 406 
Q 353 903 353 1747 
Q 353 2603 823 3093 
Q 1294 3584 2113 3584 
Q 2378 3584 2631 3529 
Q 2884 3475 3122 3366 
z
" transform="scale(0.015625)"/>
       <path id="DejaVuSans-e7" d="M 3122 3366 
L 3122 2828 
Q 2878 2963 2633 3030 
Q 2388 3097 2138 3097 
Q 1578 3097 1268 2742 
Q 959 2388 959 1747 
Q 959 1106 1268 751 
Q 1578 397 2138 397 
Q 2388 397 2633 464 
Q 2878 531 3122 666 
L 3122 134 
Q 2881 22 2623 -34 
Q 2366 -91 2075 -91 
Q 1284 -91 818 406 
Q 353 903 353 1747 
Q 353 2603 823 3093 
Q 1294 3584 2113 3584 
Q 2378 3584 2631 3529 
Q 2884 3475 3122 3366 
z
M 2311 0 
Q 2482 -194 2566 -358 
Q 2651 -522 2651 -672 
Q 2651 -950 2463 -1092 
Q 2276 -1234 1907 -1234 
Q 1764 -1234 1628 -1215 
Q 1492 -1197 1357 -1159 
L 1357 -750 
Q 1464 -803 1579 -826 
Q 1695 -850 1842 -850 
Q 2026 -850 2120 -775 
Q 2214 -700 2214 -556 
Q 2214 -463 2146 -327 
Q 2079 -191 1939 0 
L 2311 0 
z
" transform="scale(0.015625)"/>
       <path id="DejaVuSans-e3" d="M 2194 1759 
Q 1497 1759 1228 1600 
Q 959 1441 959 1056 
Q 959 750 1161 570 
Q 1363 391 1709 391 
Q 2188 391 2477 730 
Q 2766 1069 2766 1631 
L 2766 1759 
L 2194 1759 
z
M 3341 1997 
L 3341 0 
L 2766 0 
L 2766 531 
Q 2569 213 2275 61 
Q 1981 -91 1556 -91 
Q 1019 -91 701 211 
Q 384 513 384 1019 
Q 384 1609 779 1909 
Q 1175 2209 1959 2209 
L 2766 2209 
L 2766 2266 
Q 2766 2663 2505 2880 
Q 2244 3097 1772 3097 
Q 1472 3097 1187 3025 
Q 903 2953 641 2809 
L 641 3341 
Q 956 3463 1253 3523 
Q 1550 3584 1831 3584 
Q 2591 3584 2966 3190 
Q 3341 2797 3341 1997 
z
M 1844 4281 
L 1665 4453 
Q 1597 4516 1545 4545 
Q 1494 4575 1453 4575 
Q 1334 4575 1278 4461 
Q 1222 4347 1215 4091 
L 825 4091 
Q 831 4513 990 4742 
Q 1150 4972 1434 4972 
Q 1553 4972 1653 4928 
Q 1753 4884 1869 4781 
L 2047 4609 
Q 2115 4547 2167 4517 
Q 2219 4488 2259 4488 
Q 2378 4488 2434 4602 
Q 2490 4716 2497 4972 
L 2887 4972 
Q 2881 4550 2721 4320 
Q 2562 4091 2278 4091 
Q 2159 4091 2059 4134 
Q 1959 4178 1844 4281 
z
" transform="scale(0.015625)"/>
       <path id="DejaVuSans-61" d="M 2194 1759 
Q 1497 1759 1228 1600 
Q 959 1441 959 1056 
Q 959 750 1161 570 
Q 1363 391 1709 391 
Q 2188 391 2477 730 
Q 2766 1069 2766 1631 
L 2766 1759 
L 2194 1759 
z
M 3341 1997 
L 3341 0 
L 2766 0 
L 2766 531 
Q 2569 213 2275 61 
Q 1981 -91 1556 -91 
Q 1019 -91 701 211 
Q 384 513 384 1019 
Q 384 1609 779 1909 
Q 1175 2209 1959 2209 
L 2766 2209 
L 2766 2266 
Q 2766 2663 2505 2880 
Q 2244 3097 1772 3097 
Q 1472 3097 1187 3025 
Q 903 2953 641 2809 
L 641 3341 
Q 956 3463 1253 3523 
Q 1550 3584 1831 3584 
Q 2591 3584 2966 3190 
Q 3341 2797 3341 1997 
z
" transform="scale(0.015625)"/>
       <path id="DejaVuSans-6c" d="M 603 4863 
L 1178 4863 
L 1178 0 
L 603 0 
L 603 4863 
z
" transform="scale(0.015625)"/>
       <path id="DejaVuSans-67" d="M 2906 1791 
Q 2906 2416 2648 2759 
Q 2391 3103 1925 3103 
Q 1463 3103 1205 2759 
Q 947 2416 947 1791 
Q 947 1169 1205 825 
Q 1463 481 1925 481 
Q 2391 481 2648 825 
Q 2906 1169 2906 1791 
z
M 3481 434 
Q 3481 -459 3084 -895 
Q 2688 -1331 1869 -1331 
Q 1566 -1331 1297 -1286 
Q 1028 -1241 775 -1147 
L 775 -588 
Q 1028 -725 1275 -790 
Q 1522 -856 1778 -856 
Q 2344 -856 2625 -561 
Q 2906 -266 2906 331 
L 2906 616 
Q 2728 306 2450 153 
Q 2172 0 1784 0 
Q 1141 0 747 490 
Q 353 981 353 1791 
Q 353 2603 747 3093 
Q 1141 3584 1784 3584 
Q 2172 3584 2450 3431 
Q 2728 3278 2906 2969 
L 2906 3500 
L 3481 3500 
L 3481 434 
z
" transform="scale(0.015625)"/>
      </defs>
      <use xlink:href="#DejaVuSans-54"/>
      <use xlink:href="#DejaVuSans-65" x="44.083984"/>
      <use xlink:href="#DejaVuSans-6d" x="105.607422"/>
      <use xlink:href="#DejaVuSans-70" x="203.019531"/>
      <use xlink:href="#DejaVuSans-6f" x="266.496094"/>
      <use xlink:href="#DejaVuSans-20" x="327.677734"/>
      <use xlink:href="#DejaVuSans-64" x="359.464844"/>
      <use xlink:href="#DejaVuSans-65" x="422.941406"/>
      <use xlink:href="#DejaVuSans-20" x="484.464844"/>
      <use xlink:href="#DejaVuSans-65" x="516.251953"/>
      <use xlink:href="#DejaVuSans-78" x="576.025391"/>
      <use xlink:href="#DejaVuSans-65" x="632.080078"/>
      <use xlink:href="#DejaVuSans-63" x="693.603516"/>
      <use xlink:href="#DejaVuSans-75" x="748.583984"/>
      <use xlink:href="#DejaVuSans-e7" x="811.962891"/>
      <use xlink:href="#DejaVuSans-e3" x="866.943359"/>
      <use xlink:href="#DejaVuSans-6f" x="928.222656"/>
      <use xlink:href="#DejaVuSans-20" x="989.404297"/>
      <use xlink:href="#DejaVuSans-64" x="1021.191406"/>
      <use xlink:href="#DejaVuSans-61" x="1084.667969"/>
      <use xlink:href="#DejaVuSans-20" x="1145.947266"/>
      <use xlink:href="#DejaVuSans-61" x="1177.734375"/>
      <use xlink:href="#DejaVuSans-70" x="1239.013672"/>
      <use xlink:href="#DejaVuSans-6c" x="1302.490234"/>
      <use xlink:href="#DejaVuSans-69" x="1330.273438"/>
      <use xlink:href="#DejaVuSans-63" x="1358.056641"/>
      <use xlink:href="#DejaVuSans-61" x="1413.037109"/>
      <use xlink:href="#DejaVuSans-e7" x="1474.316406"/>
      <use xlink:href="#DejaVuSans-e3" x="1529.296875"/>
      <use xlink:href="#DejaVuSans-6f" x="1590.576172"/>
      <use xlink:href="#DejaVuSans-20" x="1651.757812"/>
      <use xlink:href="#DejaVuSans-65" x="1683.544922"/>
      <use xlink:href="#DejaVuSans-6d" x="1745.068359"/>
      <use xlink:href="#DejaVuSans-20" x="1842.480469"/>
      <use xlink:href="#DejaVuSans-6d" x="1874.267578"/>
      <use xlink:href="#DejaVuSans-69" x="1971.679688"/>
      <use xlink:href="#DejaVuSans-63" x="1999.462891"/>
      <use xlink:href="#DejaVuSans-72" x="2054.443359"/>
      <use xlink:href="#DejaVuSans-6f" x="2093.306641"/>
      <use xlink:href="#DejaVuSans-20" x="2154.488281"/>
      <use xlink:href="#DejaVuSans-73" x="2186.275391"/>
      <use xlink:href="#DejaVuSans-65" x="2238.375"/>
      <use xlink:href="#DejaVuSans-67" x="2299.898438"/>
      <use xlink:href="#DejaVuSans-75" x="2363.375"/>
      <use xlink:href="#DejaVuSans-6e" x="2426.753906"/>
      <use xlink:href="#DejaVuSans-64" x="2490.132812"/>
      <use xlink:href="#DejaVuSans-6f" x="2553.609375"/>
      <use xlink:href="#DejaVuSans-73" x="2614.791016"/>
     </g>
    </g>
   </g>
   <g id="line2d_14">
    <path d="M 73.832727 295.2696 
L 84.305455 294.560798 
L 94.778182 293.379461 
L 105.250909 291.725589 
L 115.723636 289.599182 
L 126.196364 287.00024 
L 136.669091 283.928763 
L 147.141818 280.384751 
L 157.614545 276.368204 
L 168.087273 271.879123 
L 178.56 266.917506 
L 189.032727 261.483355 
L 199.505455 255.576669 
L 209.978182 249.197448 
L 220.450909 242.345692 
L 230.923636 235.021401 
L 241.396364 227.224575 
L 251.869091 218.955214 
L 262.341818 210.213319 
L 272.814545 200.998888 
L 283.287273 191.311923 
L 293.76 181.152422 
L 304.232727 170.520387 
L 314.705455 159.415817 
L 325.178182 147.838712 
L 335.650909 135.789072 
L 346.123636 123.266897 
L 356.596364 110.272188 
L 367.069091 96.804943 
L 377.541818 82.865164 
L 388.014545 68.452849 
L 398.487273 53.568 
" clip-path="url(#p7ec9bee803)" style="fill: none; stroke: #1f77b4; stroke-width: 1.5; stroke-linecap: square"/>
   </g>
   <g id="line2d_15">
    <path d="M 73.832727 295.385371 
L 84.305455 295.03097 
L 94.778182 294.440302 
L 105.250909 293.613365 
L 115.723636 292.550162 
L 126.196364 291.250691 
L 136.669091 289.714953 
L 147.141818 287.942947 
L 157.614545 285.934673 
L 168.087273 283.690133 
L 178.56 281.209324 
L 189.032727 278.492249 
L 199.505455 275.538906 
L 209.978182 272.349295 
L 220.450909 268.923417 
L 230.923636 265.261272 
L 241.396364 261.362859 
L 251.869091 257.228178 
L 262.341818 252.857231 
L 272.814545 248.250015 
L 283.287273 243.406533 
L 293.76 238.326782 
L 304.232727 233.010765 
L 314.705455 227.45848 
L 325.178182 221.669927 
L 335.650909 215.645107 
L 346.123636 209.38402 
L 356.596364 202.886665 
L 367.069091 196.153043 
L 377.541818 189.183153 
L 388.014545 181.976996 
L 398.487273 174.534571 
" clip-path="url(#p7ec9bee803)" style="fill: none; stroke: #ff7f0e; stroke-width: 1.5; stroke-linecap: square"/>
   </g>
   <g id="line2d_16">
    <path d="M 73.832727 295.442076 
L 84.305455 295.264875 
L 94.778182 294.969541 
L 105.250909 294.556073 
L 115.723636 294.024471 
L 126.196364 293.374735 
L 136.669091 292.606866 
L 147.141818 291.720863 
L 157.614545 290.716727 
L 168.087273 289.594456 
L 178.56 288.354052 
L 189.032727 286.995514 
L 199.505455 285.518843 
L 209.978182 283.924037 
L 220.450909 282.211098 
L 230.923636 280.380026 
L 241.396364 278.430819 
L 251.869091 276.363479 
L 262.341818 274.178005 
L 272.814545 271.874397 
L 283.287273 269.452656 
L 293.76 266.912781 
L 304.232727 264.254772 
L 314.705455 261.47863 
L 325.178182 258.584353 
L 335.650909 255.571944 
L 346.123636 252.4414 
L 356.596364 249.192722 
L 367.069091 245.825911 
L 377.541818 242.340966 
L 388.014545 238.737888 
L 398.487273 235.016675 
" clip-path="url(#p7ec9bee803)" style="fill: none; stroke: #2ca02c; stroke-width: 1.5; stroke-linecap: square"/>
   </g>
   <g id="line2d_17">
    <path d="M 73.832727 295.469246 
L 84.305455 295.380646 
L 94.778182 295.232979 
L 105.250909 295.026245 
L 115.723636 294.760444 
L 126.196364 294.435576 
L 136.669091 294.051642 
L 147.141818 293.60864 
L 157.614545 293.106572 
L 168.087273 292.545437 
L 178.56 291.925235 
L 189.032727 291.245966 
L 199.505455 290.50763 
L 209.978182 289.710227 
L 220.450909 288.853758 
L 230.923636 287.938221 
L 241.396364 286.963618 
L 251.869091 285.929948 
L 262.341818 284.837211 
L 272.814545 283.685407 
L 283.287273 282.474537 
L 293.76 281.204599 
L 304.232727 279.875595 
L 314.705455 278.487523 
L 325.178182 277.040385 
L 335.650909 275.53418 
L 346.123636 273.968908 
L 356.596364 272.34457 
L 367.069091 270.661164 
L 377.541818 268.918692 
L 388.014545 267.117152 
L 398.487273 265.256546 
" clip-path="url(#p7ec9bee803)" style="fill: none; stroke: #d62728; stroke-width: 1.5; stroke-linecap: square"/>
   </g>
   <g id="line2d_18">
    <path d="M 73.832727 295.48165 
L 84.305455 295.43735 
L 94.778182 295.363517 
L 105.250909 295.26015 
L 115.723636 295.127249 
L 126.196364 294.964815 
L 136.669091 294.772848 
L 147.141818 294.551347 
L 157.614545 294.300313 
L 168.087273 294.019745 
L 178.56 293.709644 
L 189.032727 293.37001 
L 199.505455 293.000842 
L 209.978182 292.602141 
L 220.450909 292.173906 
L 230.923636 291.716138 
L 241.396364 291.228836 
L 251.869091 290.712001 
L 262.341818 290.165633 
L 272.814545 289.589731 
L 283.287273 288.984295 
L 293.76 288.349327 
L 304.232727 287.684824 
L 314.705455 286.990789 
L 325.178182 286.26722 
L 335.650909 285.514117 
L 346.123636 284.731481 
L 356.596364 283.919312 
L 367.069091 283.077609 
L 377.541818 282.206373 
L 388.014545 281.305603 
L 398.487273 280.3753 
" clip-path="url(#p7ec9bee803)" style="fill: none; stroke: #9467bd; stroke-width: 1.5; stroke-linecap: square"/>
   </g>
   <g id="line2d_19">
    <path d="M 73.832727 295.486671 
L 84.305455 295.464521 
L 94.778182 295.427604 
L 105.250909 295.375921 
L 115.723636 295.30947 
L 126.196364 295.228253 
L 136.669091 295.13227 
L 147.141818 295.021519 
L 157.614545 294.896002 
L 168.087273 294.755719 
L 178.56 294.600668 
L 189.032727 294.430851 
L 199.505455 294.246267 
L 209.978182 294.046916 
L 220.450909 293.832799 
L 230.923636 293.603915 
L 241.396364 293.360264 
L 251.869091 293.101846 
L 262.341818 292.828662 
L 272.814545 292.540711 
L 283.287273 292.237994 
L 293.76 291.920509 
L 304.232727 291.588258 
L 314.705455 291.24124 
L 325.178182 290.879456 
L 335.650909 290.502904 
L 346.123636 290.111587 
L 356.596364 289.705502 
L 367.069091 289.28465 
L 377.541818 288.849032 
L 388.014545 288.398648 
L 398.487273 287.933496 
" clip-path="url(#p7ec9bee803)" style="fill: none; stroke: #8c564b; stroke-width: 1.5; stroke-linecap: square"/>
   </g>
   <g id="line2d_20">
    <path d="M 73.832727 295.488 
L 84.305455 295.476925 
L 94.778182 295.458467 
L 105.250909 295.432625 
L 115.723636 295.3994 
L 126.196364 295.358791 
L 136.669091 295.310799 
L 147.141818 295.255424 
L 157.614545 295.192666 
L 168.087273 295.122524 
L 178.56 295.044999 
L 189.032727 294.96009 
L 199.505455 294.867798 
L 209.978182 294.768123 
L 220.450909 294.661064 
L 230.923636 294.546622 
L 241.396364 294.424796 
L 251.869091 294.295588 
L 262.341818 294.158996 
L 272.814545 294.01502 
L 283.287273 293.863661 
L 293.76 293.704919 
L 304.232727 293.538794 
L 314.705455 293.365285 
L 325.178182 293.184392 
L 335.650909 292.996117 
L 346.123636 292.800458 
L 356.596364 292.597415 
L 367.069091 292.38699 
L 377.541818 292.169181 
L 388.014545 291.943988 
L 398.487273 291.711412 
" clip-path="url(#p7ec9bee803)" style="fill: none; stroke: #e377c2; stroke-width: 1.5; stroke-linecap: square"/>
   </g>
   <g id="line2d_21">
    <path d="M 73.832727 295.487483 
L 84.305455 295.481946 
L 94.778182 295.472716 
L 105.250909 295.459796 
L 115.723636 295.443183 
L 126.196364 295.422879 
L 136.669091 295.398883 
L 147.141818 295.371195 
L 157.614545 295.339816 
L 168.087273 295.304745 
L 178.56 295.265982 
L 189.032727 295.223528 
L 199.505455 295.177382 
L 209.978182 295.127544 
L 220.450909 295.074015 
L 230.923636 295.016794 
L 241.396364 294.955881 
L 251.869091 294.891277 
L 262.341818 294.822981 
L 272.814545 294.750993 
L 283.287273 294.675314 
L 293.76 294.595943 
L 304.232727 294.51288 
L 314.705455 294.426125 
L 325.178182 294.335679 
L 335.650909 294.241542 
L 346.123636 294.143712 
L 356.596364 294.042191 
L 367.069091 293.936978 
L 377.541818 293.828074 
L 388.014545 293.715477 
L 398.487273 293.599189 
" clip-path="url(#p7ec9bee803)" style="fill: none; stroke: #7f7f7f; stroke-width: 1.5; stroke-linecap: square"/>
   </g>
   <g id="patch_3">
    <path d="M 57.6 307.584 
L 57.6 41.472 
" style="fill: none; stroke: #000000; stroke-width: 0.8; stroke-linejoin: miter; stroke-linecap: square"/>
   </g>
   <g id="patch_4">
    <path d="M 414.72 307.584 
L 414.72 41.472 
" style="fill: none; stroke: #000000; stroke-width: 0.8; stroke-linejoin: miter; stroke-linecap: square"/>
   </g>
   <g id="patch_5">
    <path d="M 57.6 307.584 
L 414.72 307.584 
" style="fill: none; stroke: #000000; stroke-width: 0.8; stroke-linejoin: miter; stroke-linecap: square"/>
   </g>
   <g id="patch_6">
    <path d="M 57.6 41.472 
L 414.72 41.472 
" style="fill: none; stroke: #000000; stroke-width: 0.8; stroke-linejoin: miter; stroke-linecap: square"/>
   </g>
   <g id="text_16">
    <!-- Aumentando o valor de $n$, para um valor fixo $p$ -->
    <g transform="translate(95.4 35.472)scale(0.12 -0.12)">
     <defs>
      <path id="DejaVuSans-41" d="M 2188 4044 
L 1331 1722 
L 3047 1722 
L 2188 4044 
z
M 1831 4666 
L 2547 4666 
L 4325 0 
L 3669 0 
L 3244 1197 
L 1141 1197 
L 716 0 
L 50 0 
L 1831 4666 
z
" transform="scale(0.015625)"/>
      <path id="DejaVuSans-76" d="M 191 3500 
L 800 3500 
L 1894 563 
L 2988 3500 
L 3597 3500 
L 2284 0 
L 1503 0 
L 191 3500 
z
" transform="scale(0.015625)"/>
      <path id="DejaVuSans-Oblique-6e" d="M 3566 2113 
L 3156 0 
L 2578 0 
L 2988 2091 
Q 3016 2238 3031 2350 
Q 3047 2463 3047 2528 
Q 3047 2791 2881 2937 
Q 2716 3084 2419 3084 
Q 1956 3084 1622 2776 
Q 1288 2469 1184 1941 
L 800 0 
L 225 0 
L 903 3500 
L 1478 3500 
L 1363 2950 
Q 1603 3253 1940 3418 
Q 2278 3584 2650 3584 
Q 3113 3584 3367 3334 
Q 3622 3084 3622 2631 
Q 3622 2519 3608 2391 
Q 3594 2263 3566 2113 
z
" transform="scale(0.015625)"/>
      <path id="DejaVuSans-2c" d="M 750 794 
L 1409 794 
L 1409 256 
L 897 -744 
L 494 -744 
L 750 256 
L 750 794 
z
" transform="scale(0.015625)"/>
      <path id="DejaVuSans-66" d="M 2375 4863 
L 2375 4384 
L 1825 4384 
Q 1516 4384 1395 4259 
Q 1275 4134 1275 3809 
L 1275 3500 
L 2222 3500 
L 2222 3053 
L 1275 3053 
L 1275 0 
L 697 0 
L 697 3053 
L 147 3053 
L 147 3500 
L 697 3500 
L 697 3744 
Q 697 4328 969 4595 
Q 1241 4863 1831 4863 
L 2375 4863 
z
" transform="scale(0.015625)"/>
      <path id="DejaVuSans-Oblique-70" d="M 3175 2156 
Q 3175 2616 2975 2859 
Q 2775 3103 2400 3103 
Q 2144 3103 1911 2972 
Q 1678 2841 1497 2591 
Q 1319 2344 1212 1994 
Q 1106 1644 1106 1300 
Q 1106 863 1306 627 
Q 1506 391 1875 391 
Q 2147 391 2380 519 
Q 2613 647 2778 891 
Q 2956 1147 3065 1494 
Q 3175 1841 3175 2156 
z
M 1394 2969 
Q 1625 3272 1939 3428 
Q 2253 3584 2638 3584 
Q 3175 3584 3472 3232 
Q 3769 2881 3769 2247 
Q 3769 1728 3584 1258 
Q 3400 788 3053 416 
Q 2822 169 2531 39 
Q 2241 -91 1919 -91 
Q 1547 -91 1294 64 
Q 1041 219 916 525 
L 556 -1331 
L -19 -1331 
L 922 3500 
L 1497 3500 
L 1394 2969 
z
" transform="scale(0.015625)"/>
     </defs>
     <use xlink:href="#DejaVuSans-41" transform="translate(0 0.015625)"/>
     <use xlink:href="#DejaVuSans-75" transform="translate(68.408203 0.015625)"/>
     <use xlink:href="#DejaVuSans-6d" transform="translate(131.787109 0.015625)"/>
     <use xlink:href="#DejaVuSans-65" transform="translate(229.199219 0.015625)"/>
     <use xlink:href="#DejaVuSans-6e" transform="translate(290.722656 0.015625)"/>
     <use xlink:href="#DejaVuSans-74" transform="translate(354.101562 0.015625)"/>
     <use xlink:href="#DejaVuSans-61" transform="translate(393.310547 0.015625)"/>
     <use xlink:href="#DejaVuSans-6e" transform="translate(454.589844 0.015625)"/>
     <use xlink:href="#DejaVuSans-64" transform="translate(517.96875 0.015625)"/>
     <use xlink:href="#DejaVuSans-6f" transform="translate(581.445312 0.015625)"/>
     <use xlink:href="#DejaVuSans-20" transform="translate(642.626953 0.015625)"/>
     <use xlink:href="#DejaVuSans-6f" transform="translate(674.414062 0.015625)"/>
     <use xlink:href="#DejaVuSans-20" transform="translate(735.595703 0.015625)"/>
     <use xlink:href="#DejaVuSans-76" transform="translate(767.382812 0.015625)"/>
     <use xlink:href="#DejaVuSans-61" transform="translate(826.5625 0.015625)"/>
     <use xlink:href="#DejaVuSans-6c" transform="translate(887.841797 0.015625)"/>
     <use xlink:href="#DejaVuSans-6f" transform="translate(915.625 0.015625)"/>
     <use xlink:href="#DejaVuSans-72" transform="translate(976.806641 0.015625)"/>
     <use xlink:href="#DejaVuSans-20" transform="translate(1017.919922 0.015625)"/>
     <use xlink:href="#DejaVuSans-64" transform="translate(1049.707031 0.015625)"/>
     <use xlink:href="#DejaVuSans-65" transform="translate(1113.183594 0.015625)"/>
     <use xlink:href="#DejaVuSans-20" transform="translate(1174.707031 0.015625)"/>
     <use xlink:href="#DejaVuSans-Oblique-6e" transform="translate(1206.494141 0.015625)"/>
     <use xlink:href="#DejaVuSans-2c" transform="translate(1269.873047 0.015625)"/>
     <use xlink:href="#DejaVuSans-20" transform="translate(1301.660156 0.015625)"/>
     <use xlink:href="#DejaVuSans-70" transform="translate(1333.447266 0.015625)"/>
     <use xlink:href="#DejaVuSans-61" transform="translate(1396.923828 0.015625)"/>
     <use xlink:href="#DejaVuSans-72" transform="translate(1458.203125 0.015625)"/>
     <use xlink:href="#DejaVuSans-61" transform="translate(1499.316406 0.015625)"/>
     <use xlink:href="#DejaVuSans-20" transform="translate(1560.595703 0.015625)"/>
     <use xlink:href="#DejaVuSans-75" transform="translate(1592.382812 0.015625)"/>
     <use xlink:href="#DejaVuSans-6d" transform="translate(1655.761719 0.015625)"/>
     <use xlink:href="#DejaVuSans-20" transform="translate(1753.173828 0.015625)"/>
     <use xlink:href="#DejaVuSans-76" transform="translate(1784.960938 0.015625)"/>
     <use xlink:href="#DejaVuSans-61" transform="translate(1844.140625 0.015625)"/>
     <use xlink:href="#DejaVuSans-6c" transform="translate(1905.419922 0.015625)"/>
     <use xlink:href="#DejaVuSans-6f" transform="translate(1933.203125 0.015625)"/>
     <use xlink:href="#DejaVuSans-72" transform="translate(1994.384766 0.015625)"/>
     <use xlink:href="#DejaVuSans-20" transform="translate(2035.498047 0.015625)"/>
     <use xlink:href="#DejaVuSans-66" transform="translate(2067.285156 0.015625)"/>
     <use xlink:href="#DejaVuSans-69" transform="translate(2102.490234 0.015625)"/>
     <use xlink:href="#DejaVuSans-78" transform="translate(2130.273438 0.015625)"/>
     <use xlink:href="#DejaVuSans-6f" transform="translate(2189.453125 0.015625)"/>
     <use xlink:href="#DejaVuSans-20" transform="translate(2250.634766 0.015625)"/>
     <use xlink:href="#DejaVuSans-Oblique-70" transform="translate(2282.421875 0.015625)"/>
    </g>
   </g>
   <g id="legend_1">
    <g id="patch_7">
     <path d="M 64.6 167.0595 
L 134.4 167.0595 
Q 136.4 167.0595 136.4 165.0595 
L 136.4 48.472 
Q 136.4 46.472 134.4 46.472 
L 64.6 46.472 
Q 62.6 46.472 62.6 48.472 
L 62.6 165.0595 
Q 62.6 167.0595 64.6 167.0595 
z
" style="fill: #ffffff; opacity: 0.8; stroke: #cccccc; stroke-linejoin: miter"/>
    </g>
    <g id="line2d_22">
     <path d="M 66.6 54.570437 
L 76.6 54.570437 
L 86.6 54.570437 
" style="fill: none; stroke: #1f77b4; stroke-width: 1.5; stroke-linecap: square"/>
    </g>
    <g id="text_17">
     <!-- $p=$1 -->
     <g transform="translate(94.6 58.070437)scale(0.1 -0.1)">
      <defs>
       <path id="DejaVuSans-3d" d="M 678 2906 
L 4684 2906 
L 4684 2381 
L 678 2381 
L 678 2906 
z
M 678 1631 
L 4684 1631 
L 4684 1100 
L 678 1100 
L 678 1631 
z
" transform="scale(0.015625)"/>
      </defs>
      <use xlink:href="#DejaVuSans-Oblique-70" transform="translate(0 0.09375)"/>
      <use xlink:href="#DejaVuSans-3d" transform="translate(82.958984 0.09375)"/>
      <use xlink:href="#DejaVuSans-31" transform="translate(186.230469 0.09375)"/>
     </g>
    </g>
    <g id="line2d_23">
     <path d="M 66.6 69.268875 
L 76.6 69.268875 
L 86.6 69.268875 
" style="fill: none; stroke: #ff7f0e; stroke-width: 1.5; stroke-linecap: square"/>
    </g>
    <g id="text_18">
     <!-- $p=$2 -->
     <g transform="translate(94.6 72.768875)scale(0.1 -0.1)">
      <use xlink:href="#DejaVuSans-Oblique-70" transform="translate(0 0.78125)"/>
      <use xlink:href="#DejaVuSans-3d" transform="translate(82.958984 0.78125)"/>
      <use xlink:href="#DejaVuSans-32" transform="translate(186.230469 0.78125)"/>
     </g>
    </g>
    <g id="line2d_24">
     <path d="M 66.6 83.967312 
L 76.6 83.967312 
L 86.6 83.967312 
" style="fill: none; stroke: #2ca02c; stroke-width: 1.5; stroke-linecap: square"/>
    </g>
    <g id="text_19">
     <!-- $p=$4 -->
     <g transform="translate(94.6 87.467312)scale(0.1 -0.1)">
      <use xlink:href="#DejaVuSans-Oblique-70" transform="translate(0 0.09375)"/>
      <use xlink:href="#DejaVuSans-3d" transform="translate(82.958984 0.09375)"/>
      <use xlink:href="#DejaVuSans-34" transform="translate(186.230469 0.09375)"/>
     </g>
    </g>
    <g id="line2d_25">
     <path d="M 66.6 98.66575 
L 76.6 98.66575 
L 86.6 98.66575 
" style="fill: none; stroke: #d62728; stroke-width: 1.5; stroke-linecap: square"/>
    </g>
    <g id="text_20">
     <!-- $p=$8 -->
     <g transform="translate(94.6 102.16575)scale(0.1 -0.1)">
      <use xlink:href="#DejaVuSans-Oblique-70" transform="translate(0 0.78125)"/>
      <use xlink:href="#DejaVuSans-3d" transform="translate(82.958984 0.78125)"/>
      <use xlink:href="#DejaVuSans-38" transform="translate(186.230469 0.78125)"/>
     </g>
    </g>
    <g id="line2d_26">
     <path d="M 66.6 113.364187 
L 76.6 113.364187 
L 86.6 113.364187 
" style="fill: none; stroke: #9467bd; stroke-width: 1.5; stroke-linecap: square"/>
    </g>
    <g id="text_21">
     <!-- $p=$16 -->
     <g transform="translate(94.6 116.864187)scale(0.1 -0.1)">
      <use xlink:href="#DejaVuSans-Oblique-70" transform="translate(0 0.78125)"/>
      <use xlink:href="#DejaVuSans-3d" transform="translate(82.958984 0.78125)"/>
      <use xlink:href="#DejaVuSans-31" transform="translate(186.230469 0.78125)"/>
      <use xlink:href="#DejaVuSans-36" transform="translate(249.853516 0.78125)"/>
     </g>
    </g>
    <g id="line2d_27">
     <path d="M 66.6 128.062625 
L 76.6 128.062625 
L 86.6 128.062625 
" style="fill: none; stroke: #8c564b; stroke-width: 1.5; stroke-linecap: square"/>
    </g>
    <g id="text_22">
     <!-- $p=$32 -->
     <g transform="translate(94.6 131.562625)scale(0.1 -0.1)">
      <use xlink:href="#DejaVuSans-Oblique-70" transform="translate(0 0.78125)"/>
      <use xlink:href="#DejaVuSans-3d" transform="translate(82.958984 0.78125)"/>
      <use xlink:href="#DejaVuSans-33" transform="translate(186.230469 0.78125)"/>
      <use xlink:href="#DejaVuSans-32" transform="translate(249.853516 0.78125)"/>
     </g>
    </g>
    <g id="line2d_28">
     <path d="M 66.6 142.761062 
L 76.6 142.761062 
L 86.6 142.761062 
" style="fill: none; stroke: #e377c2; stroke-width: 1.5; stroke-linecap: square"/>
    </g>
    <g id="text_23">
     <!-- $p=$64 -->
     <g transform="translate(94.6 146.261062)scale(0.1 -0.1)">
      <use xlink:href="#DejaVuSans-Oblique-70" transform="translate(0 0.78125)"/>
      <use xlink:href="#DejaVuSans-3d" transform="translate(82.958984 0.78125)"/>
      <use xlink:href="#DejaVuSans-36" transform="translate(186.230469 0.78125)"/>
      <use xlink:href="#DejaVuSans-34" transform="translate(249.853516 0.78125)"/>
     </g>
    </g>
    <g id="line2d_29">
     <path d="M 66.6 157.4595 
L 76.6 157.4595 
L 86.6 157.4595 
" style="fill: none; stroke: #7f7f7f; stroke-width: 1.5; stroke-linecap: square"/>
    </g>
    <g id="text_24">
     <!-- $p=$128 -->
     <g transform="translate(94.6 160.9595)scale(0.1 -0.1)">
      <use xlink:href="#DejaVuSans-Oblique-70" transform="translate(0 0.78125)"/>
      <use xlink:href="#DejaVuSans-3d" transform="translate(82.958984 0.78125)"/>
      <use xlink:href="#DejaVuSans-31" transform="translate(186.230469 0.78125)"/>
      <use xlink:href="#DejaVuSans-32" transform="translate(249.853516 0.78125)"/>
      <use xlink:href="#DejaVuSans-38" transform="translate(313.476562 0.78125)"/>
     </g>
    </g>
   </g>
  </g>
 </g>
 <defs>
  <clipPath id="p7ec9bee803">
   <rect x="57.6" y="41.472" width="357.12" height="266.112"/>
  </clipPath>
 </defs>
</svg>
