<?xml version="1.0" encoding="utf-8" standalone="no"?>
<!DOCTYPE svg PUBLIC "-//W3C//DTD SVG 1.1//EN"
  "http://www.w3.org/Graphics/SVG/1.1/DTD/svg11.dtd">
<svg xmlns:xlink="http://www.w3.org/1999/xlink" width="460.8pt" height="345.6pt" viewBox="0 0 460.8 345.6" xmlns="http://www.w3.org/2000/svg" version="1.1">
 <metadata>
  <rdf:RDF xmlns:dc="http://purl.org/dc/elements/1.1/" xmlns:cc="http://creativecommons.org/ns#" xmlns:rdf="http://www.w3.org/1999/02/22-rdf-syntax-ns#">
   <cc:Work>
    <dc:type rdf:resource="http://purl.org/dc/dcmitype/StillImage"/>
    <dc:date>2022-05-23T18:24:27.932750</dc:date>
    <dc:format>image/svg+xml</dc:format>
    <dc:creator>
     <cc:Agent>
      <dc:title>Matplotlib v3.5.2, https://matplotlib.org/</dc:title>
     </cc:Agent>
    </dc:creator>
   </cc:Work>
  </rdf:RDF>
 </metadata>
 <defs>
  <style type="text/css">*{stroke-linejoin: round; stroke-linecap: butt}</style>
 </defs>
 <g id="figure_1">
  <g id="patch_1">
   <path d="M 0 345.6 
L 460.8 345.6 
L 460.8 0 
L 0 0 
z
" style="fill: #ffffff"/>
  </g>
  <g id="axes_1">
   <g id="patch_2">
    <path d="M 57.6 307.584 
L 414.72 307.584 
L 414.72 41.472 
L 57.6 41.472 
z
" style="fill: #ffffff"/>
   </g>
   <g id="matplotlib.axis_1">
    <g id="xtick_1">
     <g id="line2d_1">
      <defs>
       <path id="mcb4fe31032" d="M 0 0 
L 0 3.5 
" style="stroke: #000000; stroke-width: 0.8"/>
      </defs>
      <g>
       <use xlink:href="#mcb4fe31032" x="63.36" y="307.584" style="stroke: #000000; stroke-width: 0.8"/>
      </g>
     </g>
     <g id="text_1">
      <!-- 0 -->
      <g transform="translate(60.17875 322.182437)scale(0.1 -0.1)">
       <defs>
        <path id="DejaVuSans-30" d="M 2034 4250 
Q 1547 4250 1301 3770 
Q 1056 3291 1056 2328 
Q 1056 1369 1301 889 
Q 1547 409 2034 409 
Q 2525 409 2770 889 
Q 3016 1369 3016 2328 
Q 3016 3291 2770 3770 
Q 2525 4250 2034 4250 
z
M 2034 4750 
Q 2819 4750 3233 4129 
Q 3647 3509 3647 2328 
Q 3647 1150 3233 529 
Q 2819 -91 2034 -91 
Q 1250 -91 836 529 
Q 422 1150 422 2328 
Q 422 3509 836 4129 
Q 1250 4750 2034 4750 
z
" transform="scale(0.015625)"/>
       </defs>
       <use xlink:href="#DejaVuSans-30"/>
      </g>
     </g>
    </g>
    <g id="xtick_2">
     <g id="line2d_2">
      <g>
       <use xlink:href="#mcb4fe31032" x="115.723636" y="307.584" style="stroke: #000000; stroke-width: 0.8"/>
      </g>
     </g>
     <g id="text_2">
      <!-- 50 -->
      <g transform="translate(109.361136 322.182437)scale(0.1 -0.1)">
       <defs>
        <path id="DejaVuSans-35" d="M 691 4666 
L 3169 4666 
L 3169 4134 
L 1269 4134 
L 1269 2991 
Q 1406 3038 1543 3061 
Q 1681 3084 1819 3084 
Q 2600 3084 3056 2656 
Q 3513 2228 3513 1497 
Q 3513 744 3044 326 
Q 2575 -91 1722 -91 
Q 1428 -91 1123 -41 
Q 819 9 494 109 
L 494 744 
Q 775 591 1075 516 
Q 1375 441 1709 441 
Q 2250 441 2565 725 
Q 2881 1009 2881 1497 
Q 2881 1984 2565 2268 
Q 2250 2553 1709 2553 
Q 1456 2553 1204 2497 
Q 953 2441 691 2322 
L 691 4666 
z
" transform="scale(0.015625)"/>
       </defs>
       <use xlink:href="#DejaVuSans-35"/>
       <use xlink:href="#DejaVuSans-30" x="63.623047"/>
      </g>
     </g>
    </g>
    <g id="xtick_3">
     <g id="line2d_3">
      <g>
       <use xlink:href="#mcb4fe31032" x="168.087273" y="307.584" style="stroke: #000000; stroke-width: 0.8"/>
      </g>
     </g>
     <g id="text_3">
      <!-- 100 -->
      <g transform="translate(158.543523 322.182437)scale(0.1 -0.1)">
       <defs>
        <path id="DejaVuSans-31" d="M 794 531 
L 1825 531 
L 1825 4091 
L 703 3866 
L 703 4441 
L 1819 4666 
L 2450 4666 
L 2450 531 
L 3481 531 
L 3481 0 
L 794 0 
L 794 531 
z
" transform="scale(0.015625)"/>
       </defs>
       <use xlink:href="#DejaVuSans-31"/>
       <use xlink:href="#DejaVuSans-30" x="63.623047"/>
       <use xlink:href="#DejaVuSans-30" x="127.246094"/>
      </g>
     </g>
    </g>
    <g id="xtick_4">
     <g id="line2d_4">
      <g>
       <use xlink:href="#mcb4fe31032" x="220.450909" y="307.584" style="stroke: #000000; stroke-width: 0.8"/>
      </g>
     </g>
     <g id="text_4">
      <!-- 150 -->
      <g transform="translate(210.907159 322.182437)scale(0.1 -0.1)">
       <use xlink:href="#DejaVuSans-31"/>
       <use xlink:href="#DejaVuSans-35" x="63.623047"/>
       <use xlink:href="#DejaVuSans-30" x="127.246094"/>
      </g>
     </g>
    </g>
    <g id="xtick_5">
     <g id="line2d_5">
      <g>
       <use xlink:href="#mcb4fe31032" x="272.814545" y="307.584" style="stroke: #000000; stroke-width: 0.8"/>
      </g>
     </g>
     <g id="text_5">
      <!-- 200 -->
      <g transform="translate(263.270795 322.182437)scale(0.1 -0.1)">
       <defs>
        <path id="DejaVuSans-32" d="M 1228 531 
L 3431 531 
L 3431 0 
L 469 0 
L 469 531 
Q 828 903 1448 1529 
Q 2069 2156 2228 2338 
Q 2531 2678 2651 2914 
Q 2772 3150 2772 3378 
Q 2772 3750 2511 3984 
Q 2250 4219 1831 4219 
Q 1534 4219 1204 4116 
Q 875 4013 500 3803 
L 500 4441 
Q 881 4594 1212 4672 
Q 1544 4750 1819 4750 
Q 2544 4750 2975 4387 
Q 3406 4025 3406 3419 
Q 3406 3131 3298 2873 
Q 3191 2616 2906 2266 
Q 2828 2175 2409 1742 
Q 1991 1309 1228 531 
z
" transform="scale(0.015625)"/>
       </defs>
       <use xlink:href="#DejaVuSans-32"/>
       <use xlink:href="#DejaVuSans-30" x="63.623047"/>
       <use xlink:href="#DejaVuSans-30" x="127.246094"/>
      </g>
     </g>
    </g>
    <g id="xtick_6">
     <g id="line2d_6">
      <g>
       <use xlink:href="#mcb4fe31032" x="325.178182" y="307.584" style="stroke: #000000; stroke-width: 0.8"/>
      </g>
     </g>
     <g id="text_6">
      <!-- 250 -->
      <g transform="translate(315.634432 322.182437)scale(0.1 -0.1)">
       <use xlink:href="#DejaVuSans-32"/>
       <use xlink:href="#DejaVuSans-35" x="63.623047"/>
       <use xlink:href="#DejaVuSans-30" x="127.246094"/>
      </g>
     </g>
    </g>
    <g id="xtick_7">
     <g id="line2d_7">
      <g>
       <use xlink:href="#mcb4fe31032" x="377.541818" y="307.584" style="stroke: #000000; stroke-width: 0.8"/>
      </g>
     </g>
     <g id="text_7">
      <!-- 300 -->
      <g transform="translate(367.998068 322.182437)scale(0.1 -0.1)">
       <defs>
        <path id="DejaVuSans-33" d="M 2597 2516 
Q 3050 2419 3304 2112 
Q 3559 1806 3559 1356 
Q 3559 666 3084 287 
Q 2609 -91 1734 -91 
Q 1441 -91 1130 -33 
Q 819 25 488 141 
L 488 750 
Q 750 597 1062 519 
Q 1375 441 1716 441 
Q 2309 441 2620 675 
Q 2931 909 2931 1356 
Q 2931 1769 2642 2001 
Q 2353 2234 1838 2234 
L 1294 2234 
L 1294 2753 
L 1863 2753 
Q 2328 2753 2575 2939 
Q 2822 3125 2822 3475 
Q 2822 3834 2567 4026 
Q 2313 4219 1838 4219 
Q 1578 4219 1281 4162 
Q 984 4106 628 3988 
L 628 4550 
Q 988 4650 1302 4700 
Q 1616 4750 1894 4750 
Q 2613 4750 3031 4423 
Q 3450 4097 3450 3541 
Q 3450 3153 3228 2886 
Q 3006 2619 2597 2516 
z
" transform="scale(0.015625)"/>
       </defs>
       <use xlink:href="#DejaVuSans-33"/>
       <use xlink:href="#DejaVuSans-30" x="63.623047"/>
       <use xlink:href="#DejaVuSans-30" x="127.246094"/>
      </g>
     </g>
    </g>
    <g id="text_8">
     <!-- Número de units -->
     <g transform="translate(194.581094 335.860562)scale(0.1 -0.1)">
      <defs>
       <path id="DejaVuSans-4e" d="M 628 4666 
L 1478 4666 
L 3547 763 
L 3547 4666 
L 4159 4666 
L 4159 0 
L 3309 0 
L 1241 3903 
L 1241 0 
L 628 0 
L 628 4666 
z
" transform="scale(0.015625)"/>
       <path id="DejaVuSans-fa" d="M 544 1381 
L 544 3500 
L 1119 3500 
L 1119 1403 
Q 1119 906 1312 657 
Q 1506 409 1894 409 
Q 2359 409 2629 706 
Q 2900 1003 2900 1516 
L 2900 3500 
L 3475 3500 
L 3475 0 
L 2900 0 
L 2900 538 
Q 2691 219 2414 64 
Q 2138 -91 1772 -91 
Q 1169 -91 856 284 
Q 544 659 544 1381 
z
M 1991 3584 
L 1991 3584 
z
M 2418 5119 
L 3040 5119 
L 2022 3944 
L 1543 3944 
L 2418 5119 
z
" transform="scale(0.015625)"/>
       <path id="DejaVuSans-6d" d="M 3328 2828 
Q 3544 3216 3844 3400 
Q 4144 3584 4550 3584 
Q 5097 3584 5394 3201 
Q 5691 2819 5691 2113 
L 5691 0 
L 5113 0 
L 5113 2094 
Q 5113 2597 4934 2840 
Q 4756 3084 4391 3084 
Q 3944 3084 3684 2787 
Q 3425 2491 3425 1978 
L 3425 0 
L 2847 0 
L 2847 2094 
Q 2847 2600 2669 2842 
Q 2491 3084 2119 3084 
Q 1678 3084 1418 2786 
Q 1159 2488 1159 1978 
L 1159 0 
L 581 0 
L 581 3500 
L 1159 3500 
L 1159 2956 
Q 1356 3278 1631 3431 
Q 1906 3584 2284 3584 
Q 2666 3584 2933 3390 
Q 3200 3197 3328 2828 
z
" transform="scale(0.015625)"/>
       <path id="DejaVuSans-65" d="M 3597 1894 
L 3597 1613 
L 953 1613 
Q 991 1019 1311 708 
Q 1631 397 2203 397 
Q 2534 397 2845 478 
Q 3156 559 3463 722 
L 3463 178 
Q 3153 47 2828 -22 
Q 2503 -91 2169 -91 
Q 1331 -91 842 396 
Q 353 884 353 1716 
Q 353 2575 817 3079 
Q 1281 3584 2069 3584 
Q 2775 3584 3186 3129 
Q 3597 2675 3597 1894 
z
M 3022 2063 
Q 3016 2534 2758 2815 
Q 2500 3097 2075 3097 
Q 1594 3097 1305 2825 
Q 1016 2553 972 2059 
L 3022 2063 
z
" transform="scale(0.015625)"/>
       <path id="DejaVuSans-72" d="M 2631 2963 
Q 2534 3019 2420 3045 
Q 2306 3072 2169 3072 
Q 1681 3072 1420 2755 
Q 1159 2438 1159 1844 
L 1159 0 
L 581 0 
L 581 3500 
L 1159 3500 
L 1159 2956 
Q 1341 3275 1631 3429 
Q 1922 3584 2338 3584 
Q 2397 3584 2469 3576 
Q 2541 3569 2628 3553 
L 2631 2963 
z
" transform="scale(0.015625)"/>
       <path id="DejaVuSans-6f" d="M 1959 3097 
Q 1497 3097 1228 2736 
Q 959 2375 959 1747 
Q 959 1119 1226 758 
Q 1494 397 1959 397 
Q 2419 397 2687 759 
Q 2956 1122 2956 1747 
Q 2956 2369 2687 2733 
Q 2419 3097 1959 3097 
z
M 1959 3584 
Q 2709 3584 3137 3096 
Q 3566 2609 3566 1747 
Q 3566 888 3137 398 
Q 2709 -91 1959 -91 
Q 1206 -91 779 398 
Q 353 888 353 1747 
Q 353 2609 779 3096 
Q 1206 3584 1959 3584 
z
" transform="scale(0.015625)"/>
       <path id="DejaVuSans-20" transform="scale(0.015625)"/>
       <path id="DejaVuSans-64" d="M 2906 2969 
L 2906 4863 
L 3481 4863 
L 3481 0 
L 2906 0 
L 2906 525 
Q 2725 213 2448 61 
Q 2172 -91 1784 -91 
Q 1150 -91 751 415 
Q 353 922 353 1747 
Q 353 2572 751 3078 
Q 1150 3584 1784 3584 
Q 2172 3584 2448 3432 
Q 2725 3281 2906 2969 
z
M 947 1747 
Q 947 1113 1208 752 
Q 1469 391 1925 391 
Q 2381 391 2643 752 
Q 2906 1113 2906 1747 
Q 2906 2381 2643 2742 
Q 2381 3103 1925 3103 
Q 1469 3103 1208 2742 
Q 947 2381 947 1747 
z
" transform="scale(0.015625)"/>
       <path id="DejaVuSans-75" d="M 544 1381 
L 544 3500 
L 1119 3500 
L 1119 1403 
Q 1119 906 1312 657 
Q 1506 409 1894 409 
Q 2359 409 2629 706 
Q 2900 1003 2900 1516 
L 2900 3500 
L 3475 3500 
L 3475 0 
L 2900 0 
L 2900 538 
Q 2691 219 2414 64 
Q 2138 -91 1772 -91 
Q 1169 -91 856 284 
Q 544 659 544 1381 
z
M 1991 3584 
L 1991 3584 
z
" transform="scale(0.015625)"/>
       <path id="DejaVuSans-6e" d="M 3513 2113 
L 3513 0 
L 2938 0 
L 2938 2094 
Q 2938 2591 2744 2837 
Q 2550 3084 2163 3084 
Q 1697 3084 1428 2787 
Q 1159 2491 1159 1978 
L 1159 0 
L 581 0 
L 581 3500 
L 1159 3500 
L 1159 2956 
Q 1366 3272 1645 3428 
Q 1925 3584 2291 3584 
Q 2894 3584 3203 3211 
Q 3513 2838 3513 2113 
z
" transform="scale(0.015625)"/>
       <path id="DejaVuSans-69" d="M 603 3500 
L 1178 3500 
L 1178 0 
L 603 0 
L 603 3500 
z
M 603 4863 
L 1178 4863 
L 1178 4134 
L 603 4134 
L 603 4863 
z
" transform="scale(0.015625)"/>
       <path id="DejaVuSans-74" d="M 1172 4494 
L 1172 3500 
L 2356 3500 
L 2356 3053 
L 1172 3053 
L 1172 1153 
Q 1172 725 1289 603 
Q 1406 481 1766 481 
L 2356 481 
L 2356 0 
L 1766 0 
Q 1100 0 847 248 
Q 594 497 594 1153 
L 594 3053 
L 172 3053 
L 172 3500 
L 594 3500 
L 594 4494 
L 1172 4494 
z
" transform="scale(0.015625)"/>
       <path id="DejaVuSans-73" d="M 2834 3397 
L 2834 2853 
Q 2591 2978 2328 3040 
Q 2066 3103 1784 3103 
Q 1356 3103 1142 2972 
Q 928 2841 928 2578 
Q 928 2378 1081 2264 
Q 1234 2150 1697 2047 
L 1894 2003 
Q 2506 1872 2764 1633 
Q 3022 1394 3022 966 
Q 3022 478 2636 193 
Q 2250 -91 1575 -91 
Q 1294 -91 989 -36 
Q 684 19 347 128 
L 347 722 
Q 666 556 975 473 
Q 1284 391 1588 391 
Q 1994 391 2212 530 
Q 2431 669 2431 922 
Q 2431 1156 2273 1281 
Q 2116 1406 1581 1522 
L 1381 1569 
Q 847 1681 609 1914 
Q 372 2147 372 2553 
Q 372 3047 722 3315 
Q 1072 3584 1716 3584 
Q 2034 3584 2315 3537 
Q 2597 3491 2834 3397 
z
" transform="scale(0.015625)"/>
      </defs>
      <use xlink:href="#DejaVuSans-4e"/>
      <use xlink:href="#DejaVuSans-fa" x="74.804688"/>
      <use xlink:href="#DejaVuSans-6d" x="138.183594"/>
      <use xlink:href="#DejaVuSans-65" x="235.595703"/>
      <use xlink:href="#DejaVuSans-72" x="297.119141"/>
      <use xlink:href="#DejaVuSans-6f" x="335.982422"/>
      <use xlink:href="#DejaVuSans-20" x="397.164062"/>
      <use xlink:href="#DejaVuSans-64" x="428.951172"/>
      <use xlink:href="#DejaVuSans-65" x="492.427734"/>
      <use xlink:href="#DejaVuSans-20" x="553.951172"/>
      <use xlink:href="#DejaVuSans-75" x="585.738281"/>
      <use xlink:href="#DejaVuSans-6e" x="649.117188"/>
      <use xlink:href="#DejaVuSans-69" x="712.496094"/>
      <use xlink:href="#DejaVuSans-74" x="740.279297"/>
      <use xlink:href="#DejaVuSans-73" x="779.488281"/>
     </g>
    </g>
   </g>
   <g id="matplotlib.axis_2">
    <g id="ytick_1">
     <g id="line2d_8">
      <defs>
       <path id="mb444cad8b4" d="M 0 0 
L -3.5 0 
" style="stroke: #000000; stroke-width: 0.8"/>
      </defs>
      <g>
       <use xlink:href="#mb444cad8b4" x="57.6" y="295.606183" style="stroke: #000000; stroke-width: 0.8"/>
      </g>
     </g>
     <g id="text_9">
      <!-- 0 -->
      <g transform="translate(44.2375 299.405401)scale(0.1 -0.1)">
       <use xlink:href="#DejaVuSans-30"/>
      </g>
     </g>
    </g>
    <g id="ytick_2">
     <g id="line2d_9">
      <g>
       <use xlink:href="#mb444cad8b4" x="57.6" y="249.060378" style="stroke: #000000; stroke-width: 0.8"/>
      </g>
     </g>
     <g id="text_10">
      <!-- 20000 -->
      <g transform="translate(18.7875 252.859597)scale(0.1 -0.1)">
       <use xlink:href="#DejaVuSans-32"/>
       <use xlink:href="#DejaVuSans-30" x="63.623047"/>
       <use xlink:href="#DejaVuSans-30" x="127.246094"/>
       <use xlink:href="#DejaVuSans-30" x="190.869141"/>
       <use xlink:href="#DejaVuSans-30" x="254.492188"/>
      </g>
     </g>
    </g>
    <g id="ytick_3">
     <g id="line2d_10">
      <g>
       <use xlink:href="#mb444cad8b4" x="57.6" y="202.514574" style="stroke: #000000; stroke-width: 0.8"/>
      </g>
     </g>
     <g id="text_11">
      <!-- 40000 -->
      <g transform="translate(18.7875 206.313793)scale(0.1 -0.1)">
       <defs>
        <path id="DejaVuSans-34" d="M 2419 4116 
L 825 1625 
L 2419 1625 
L 2419 4116 
z
M 2253 4666 
L 3047 4666 
L 3047 1625 
L 3713 1625 
L 3713 1100 
L 3047 1100 
L 3047 0 
L 2419 0 
L 2419 1100 
L 313 1100 
L 313 1709 
L 2253 4666 
z
" transform="scale(0.015625)"/>
       </defs>
       <use xlink:href="#DejaVuSans-34"/>
       <use xlink:href="#DejaVuSans-30" x="63.623047"/>
       <use xlink:href="#DejaVuSans-30" x="127.246094"/>
       <use xlink:href="#DejaVuSans-30" x="190.869141"/>
       <use xlink:href="#DejaVuSans-30" x="254.492188"/>
      </g>
     </g>
    </g>
    <g id="ytick_4">
     <g id="line2d_11">
      <g>
       <use xlink:href="#mb444cad8b4" x="57.6" y="155.96877" style="stroke: #000000; stroke-width: 0.8"/>
      </g>
     </g>
     <g id="text_12">
      <!-- 60000 -->
      <g transform="translate(18.7875 159.767988)scale(0.1 -0.1)">
       <defs>
        <path id="DejaVuSans-36" d="M 2113 2584 
Q 1688 2584 1439 2293 
Q 1191 2003 1191 1497 
Q 1191 994 1439 701 
Q 1688 409 2113 409 
Q 2538 409 2786 701 
Q 3034 994 3034 1497 
Q 3034 2003 2786 2293 
Q 2538 2584 2113 2584 
z
M 3366 4563 
L 3366 3988 
Q 3128 4100 2886 4159 
Q 2644 4219 2406 4219 
Q 1781 4219 1451 3797 
Q 1122 3375 1075 2522 
Q 1259 2794 1537 2939 
Q 1816 3084 2150 3084 
Q 2853 3084 3261 2657 
Q 3669 2231 3669 1497 
Q 3669 778 3244 343 
Q 2819 -91 2113 -91 
Q 1303 -91 875 529 
Q 447 1150 447 2328 
Q 447 3434 972 4092 
Q 1497 4750 2381 4750 
Q 2619 4750 2861 4703 
Q 3103 4656 3366 4563 
z
" transform="scale(0.015625)"/>
       </defs>
       <use xlink:href="#DejaVuSans-36"/>
       <use xlink:href="#DejaVuSans-30" x="63.623047"/>
       <use xlink:href="#DejaVuSans-30" x="127.246094"/>
       <use xlink:href="#DejaVuSans-30" x="190.869141"/>
       <use xlink:href="#DejaVuSans-30" x="254.492188"/>
      </g>
     </g>
    </g>
    <g id="ytick_5">
     <g id="line2d_12">
      <g>
       <use xlink:href="#mb444cad8b4" x="57.6" y="109.422965" style="stroke: #000000; stroke-width: 0.8"/>
      </g>
     </g>
     <g id="text_13">
      <!-- 80000 -->
      <g transform="translate(18.7875 113.222184)scale(0.1 -0.1)">
       <defs>
        <path id="DejaVuSans-38" d="M 2034 2216 
Q 1584 2216 1326 1975 
Q 1069 1734 1069 1313 
Q 1069 891 1326 650 
Q 1584 409 2034 409 
Q 2484 409 2743 651 
Q 3003 894 3003 1313 
Q 3003 1734 2745 1975 
Q 2488 2216 2034 2216 
z
M 1403 2484 
Q 997 2584 770 2862 
Q 544 3141 544 3541 
Q 544 4100 942 4425 
Q 1341 4750 2034 4750 
Q 2731 4750 3128 4425 
Q 3525 4100 3525 3541 
Q 3525 3141 3298 2862 
Q 3072 2584 2669 2484 
Q 3125 2378 3379 2068 
Q 3634 1759 3634 1313 
Q 3634 634 3220 271 
Q 2806 -91 2034 -91 
Q 1263 -91 848 271 
Q 434 634 434 1313 
Q 434 1759 690 2068 
Q 947 2378 1403 2484 
z
M 1172 3481 
Q 1172 3119 1398 2916 
Q 1625 2713 2034 2713 
Q 2441 2713 2670 2916 
Q 2900 3119 2900 3481 
Q 2900 3844 2670 4047 
Q 2441 4250 2034 4250 
Q 1625 4250 1398 4047 
Q 1172 3844 1172 3481 
z
" transform="scale(0.015625)"/>
       </defs>
       <use xlink:href="#DejaVuSans-38"/>
       <use xlink:href="#DejaVuSans-30" x="63.623047"/>
       <use xlink:href="#DejaVuSans-30" x="127.246094"/>
       <use xlink:href="#DejaVuSans-30" x="190.869141"/>
       <use xlink:href="#DejaVuSans-30" x="254.492188"/>
      </g>
     </g>
    </g>
    <g id="ytick_6">
     <g id="line2d_13">
      <g>
       <use xlink:href="#mb444cad8b4" x="57.6" y="62.877161" style="stroke: #000000; stroke-width: 0.8"/>
      </g>
     </g>
     <g id="text_14">
      <!-- 100000 -->
      <g transform="translate(12.425 66.67638)scale(0.1 -0.1)">
       <use xlink:href="#DejaVuSans-31"/>
       <use xlink:href="#DejaVuSans-30" x="63.623047"/>
       <use xlink:href="#DejaVuSans-30" x="127.246094"/>
       <use xlink:href="#DejaVuSans-30" x="190.869141"/>
       <use xlink:href="#DejaVuSans-30" x="254.492188"/>
       <use xlink:href="#DejaVuSans-30" x="318.115234"/>
      </g>
     </g>
    </g>
    <g id="text_15">
     <!-- Tempo de execução da aplicação em micro segundos -->
     <g transform="translate(6.345312 307.875656)rotate(-90)scale(0.1 -0.1)">
      <defs>
       <path id="DejaVuSans-54" d="M -19 4666 
L 3928 4666 
L 3928 4134 
L 2272 4134 
L 2272 0 
L 1638 0 
L 1638 4134 
L -19 4134 
L -19 4666 
z
" transform="scale(0.015625)"/>
       <path id="DejaVuSans-70" d="M 1159 525 
L 1159 -1331 
L 581 -1331 
L 581 3500 
L 1159 3500 
L 1159 2969 
Q 1341 3281 1617 3432 
Q 1894 3584 2278 3584 
Q 2916 3584 3314 3078 
Q 3713 2572 3713 1747 
Q 3713 922 3314 415 
Q 2916 -91 2278 -91 
Q 1894 -91 1617 61 
Q 1341 213 1159 525 
z
M 3116 1747 
Q 3116 2381 2855 2742 
Q 2594 3103 2138 3103 
Q 1681 3103 1420 2742 
Q 1159 2381 1159 1747 
Q 1159 1113 1420 752 
Q 1681 391 2138 391 
Q 2594 391 2855 752 
Q 3116 1113 3116 1747 
z
" transform="scale(0.015625)"/>
       <path id="DejaVuSans-78" d="M 3513 3500 
L 2247 1797 
L 3578 0 
L 2900 0 
L 1881 1375 
L 863 0 
L 184 0 
L 1544 1831 
L 300 3500 
L 978 3500 
L 1906 2253 
L 2834 3500 
L 3513 3500 
z
" transform="scale(0.015625)"/>
       <path id="DejaVuSans-63" d="M 3122 3366 
L 3122 2828 
Q 2878 2963 2633 3030 
Q 2388 3097 2138 3097 
Q 1578 3097 1268 2742 
Q 959 2388 959 1747 
Q 959 1106 1268 751 
Q 1578 397 2138 397 
Q 2388 397 2633 464 
Q 2878 531 3122 666 
L 3122 134 
Q 2881 22 2623 -34 
Q 2366 -91 2075 -91 
Q 1284 -91 818 406 
Q 353 903 353 1747 
Q 353 2603 823 3093 
Q 1294 3584 2113 3584 
Q 2378 3584 2631 3529 
Q 2884 3475 3122 3366 
z
" transform="scale(0.015625)"/>
       <path id="DejaVuSans-e7" d="M 3122 3366 
L 3122 2828 
Q 2878 2963 2633 3030 
Q 2388 3097 2138 3097 
Q 1578 3097 1268 2742 
Q 959 2388 959 1747 
Q 959 1106 1268 751 
Q 1578 397 2138 397 
Q 2388 397 2633 464 
Q 2878 531 3122 666 
L 3122 134 
Q 2881 22 2623 -34 
Q 2366 -91 2075 -91 
Q 1284 -91 818 406 
Q 353 903 353 1747 
Q 353 2603 823 3093 
Q 1294 3584 2113 3584 
Q 2378 3584 2631 3529 
Q 2884 3475 3122 3366 
z
M 2311 0 
Q 2482 -194 2566 -358 
Q 2651 -522 2651 -672 
Q 2651 -950 2463 -1092 
Q 2276 -1234 1907 -1234 
Q 1764 -1234 1628 -1215 
Q 1492 -1197 1357 -1159 
L 1357 -750 
Q 1464 -803 1579 -826 
Q 1695 -850 1842 -850 
Q 2026 -850 2120 -775 
Q 2214 -700 2214 -556 
Q 2214 -463 2146 -327 
Q 2079 -191 1939 0 
L 2311 0 
z
" transform="scale(0.015625)"/>
       <path id="DejaVuSans-e3" d="M 2194 1759 
Q 1497 1759 1228 1600 
Q 959 1441 959 1056 
Q 959 750 1161 570 
Q 1363 391 1709 391 
Q 2188 391 2477 730 
Q 2766 1069 2766 1631 
L 2766 1759 
L 2194 1759 
z
M 3341 1997 
L 3341 0 
L 2766 0 
L 2766 531 
Q 2569 213 2275 61 
Q 1981 -91 1556 -91 
Q 1019 -91 701 211 
Q 384 513 384 1019 
Q 384 1609 779 1909 
Q 1175 2209 1959 2209 
L 2766 2209 
L 2766 2266 
Q 2766 2663 2505 2880 
Q 2244 3097 1772 3097 
Q 1472 3097 1187 3025 
Q 903 2953 641 2809 
L 641 3341 
Q 956 3463 1253 3523 
Q 1550 3584 1831 3584 
Q 2591 3584 2966 3190 
Q 3341 2797 3341 1997 
z
M 1844 4281 
L 1665 4453 
Q 1597 4516 1545 4545 
Q 1494 4575 1453 4575 
Q 1334 4575 1278 4461 
Q 1222 4347 1215 4091 
L 825 4091 
Q 831 4513 990 4742 
Q 1150 4972 1434 4972 
Q 1553 4972 1653 4928 
Q 1753 4884 1869 4781 
L 2047 4609 
Q 2115 4547 2167 4517 
Q 2219 4488 2259 4488 
Q 2378 4488 2434 4602 
Q 2490 4716 2497 4972 
L 2887 4972 
Q 2881 4550 2721 4320 
Q 2562 4091 2278 4091 
Q 2159 4091 2059 4134 
Q 1959 4178 1844 4281 
z
" transform="scale(0.015625)"/>
       <path id="DejaVuSans-61" d="M 2194 1759 
Q 1497 1759 1228 1600 
Q 959 1441 959 1056 
Q 959 750 1161 570 
Q 1363 391 1709 391 
Q 2188 391 2477 730 
Q 2766 1069 2766 1631 
L 2766 1759 
L 2194 1759 
z
M 3341 1997 
L 3341 0 
L 2766 0 
L 2766 531 
Q 2569 213 2275 61 
Q 1981 -91 1556 -91 
Q 1019 -91 701 211 
Q 384 513 384 1019 
Q 384 1609 779 1909 
Q 1175 2209 1959 2209 
L 2766 2209 
L 2766 2266 
Q 2766 2663 2505 2880 
Q 2244 3097 1772 3097 
Q 1472 3097 1187 3025 
Q 903 2953 641 2809 
L 641 3341 
Q 956 3463 1253 3523 
Q 1550 3584 1831 3584 
Q 2591 3584 2966 3190 
Q 3341 2797 3341 1997 
z
" transform="scale(0.015625)"/>
       <path id="DejaVuSans-6c" d="M 603 4863 
L 1178 4863 
L 1178 0 
L 603 0 
L 603 4863 
z
" transform="scale(0.015625)"/>
       <path id="DejaVuSans-67" d="M 2906 1791 
Q 2906 2416 2648 2759 
Q 2391 3103 1925 3103 
Q 1463 3103 1205 2759 
Q 947 2416 947 1791 
Q 947 1169 1205 825 
Q 1463 481 1925 481 
Q 2391 481 2648 825 
Q 2906 1169 2906 1791 
z
M 3481 434 
Q 3481 -459 3084 -895 
Q 2688 -1331 1869 -1331 
Q 1566 -1331 1297 -1286 
Q 1028 -1241 775 -1147 
L 775 -588 
Q 1028 -725 1275 -790 
Q 1522 -856 1778 -856 
Q 2344 -856 2625 -561 
Q 2906 -266 2906 331 
L 2906 616 
Q 2728 306 2450 153 
Q 2172 0 1784 0 
Q 1141 0 747 490 
Q 353 981 353 1791 
Q 353 2603 747 3093 
Q 1141 3584 1784 3584 
Q 2172 3584 2450 3431 
Q 2728 3278 2906 2969 
L 2906 3500 
L 3481 3500 
L 3481 434 
z
" transform="scale(0.015625)"/>
      </defs>
      <use xlink:href="#DejaVuSans-54"/>
      <use xlink:href="#DejaVuSans-65" x="44.083984"/>
      <use xlink:href="#DejaVuSans-6d" x="105.607422"/>
      <use xlink:href="#DejaVuSans-70" x="203.019531"/>
      <use xlink:href="#DejaVuSans-6f" x="266.496094"/>
      <use xlink:href="#DejaVuSans-20" x="327.677734"/>
      <use xlink:href="#DejaVuSans-64" x="359.464844"/>
      <use xlink:href="#DejaVuSans-65" x="422.941406"/>
      <use xlink:href="#DejaVuSans-20" x="484.464844"/>
      <use xlink:href="#DejaVuSans-65" x="516.251953"/>
      <use xlink:href="#DejaVuSans-78" x="576.025391"/>
      <use xlink:href="#DejaVuSans-65" x="632.080078"/>
      <use xlink:href="#DejaVuSans-63" x="693.603516"/>
      <use xlink:href="#DejaVuSans-75" x="748.583984"/>
      <use xlink:href="#DejaVuSans-e7" x="811.962891"/>
      <use xlink:href="#DejaVuSans-e3" x="866.943359"/>
      <use xlink:href="#DejaVuSans-6f" x="928.222656"/>
      <use xlink:href="#DejaVuSans-20" x="989.404297"/>
      <use xlink:href="#DejaVuSans-64" x="1021.191406"/>
      <use xlink:href="#DejaVuSans-61" x="1084.667969"/>
      <use xlink:href="#DejaVuSans-20" x="1145.947266"/>
      <use xlink:href="#DejaVuSans-61" x="1177.734375"/>
      <use xlink:href="#DejaVuSans-70" x="1239.013672"/>
      <use xlink:href="#DejaVuSans-6c" x="1302.490234"/>
      <use xlink:href="#DejaVuSans-69" x="1330.273438"/>
      <use xlink:href="#DejaVuSans-63" x="1358.056641"/>
      <use xlink:href="#DejaVuSans-61" x="1413.037109"/>
      <use xlink:href="#DejaVuSans-e7" x="1474.316406"/>
      <use xlink:href="#DejaVuSans-e3" x="1529.296875"/>
      <use xlink:href="#DejaVuSans-6f" x="1590.576172"/>
      <use xlink:href="#DejaVuSans-20" x="1651.757812"/>
      <use xlink:href="#DejaVuSans-65" x="1683.544922"/>
      <use xlink:href="#DejaVuSans-6d" x="1745.068359"/>
      <use xlink:href="#DejaVuSans-20" x="1842.480469"/>
      <use xlink:href="#DejaVuSans-6d" x="1874.267578"/>
      <use xlink:href="#DejaVuSans-69" x="1971.679688"/>
      <use xlink:href="#DejaVuSans-63" x="1999.462891"/>
      <use xlink:href="#DejaVuSans-72" x="2054.443359"/>
      <use xlink:href="#DejaVuSans-6f" x="2093.306641"/>
      <use xlink:href="#DejaVuSans-20" x="2154.488281"/>
      <use xlink:href="#DejaVuSans-73" x="2186.275391"/>
      <use xlink:href="#DejaVuSans-65" x="2238.375"/>
      <use xlink:href="#DejaVuSans-67" x="2299.898438"/>
      <use xlink:href="#DejaVuSans-75" x="2363.375"/>
      <use xlink:href="#DejaVuSans-6e" x="2426.753906"/>
      <use xlink:href="#DejaVuSans-64" x="2490.132812"/>
      <use xlink:href="#DejaVuSans-6f" x="2553.609375"/>
      <use xlink:href="#DejaVuSans-73" x="2614.791016"/>
     </g>
    </g>
   </g>
   <g id="line2d_14">
    <path d="M 73.832727 295.257089 
L 84.305455 294.442538 
L 94.778182 293.162528 
L 105.250909 291.41706 
L 115.723636 289.206135 
L 126.196364 286.529751 
L 136.669091 283.387909 
L 147.141818 279.780609 
L 157.614545 275.707851 
L 168.087273 271.169635 
L 178.56 266.165961 
L 189.032727 260.696829 
L 199.505455 254.762239 
L 209.978182 248.362191 
L 220.450909 241.496685 
L 230.923636 234.165721 
L 241.396364 226.369299 
L 251.869091 218.107418 
L 262.341818 209.38008 
L 272.814545 200.187284 
L 283.287273 190.529029 
L 293.76 180.405317 
L 304.232727 169.816146 
L 314.705455 158.761518 
L 325.178182 147.241431 
L 335.650909 135.255887 
L 346.123636 122.804884 
L 356.596364 109.888423 
L 367.069091 96.506505 
L 377.541818 82.659128 
L 388.014545 68.346293 
L 398.487273 53.568 
" clip-path="url(#p1320314d8d)" style="fill: none; stroke: #1f77b4; stroke-width: 1.5; stroke-linecap: square"/>
   </g>
   <g id="line2d_15">
    <path d="M 73.832727 295.373454 
L 84.305455 294.907996 
L 94.778182 294.209809 
L 105.250909 293.278892 
L 115.723636 292.115247 
L 126.196364 290.718873 
L 136.669091 289.08977 
L 147.141818 287.227938 
L 157.614545 285.133377 
L 168.087273 282.806087 
L 178.56 280.246067 
L 189.032727 277.453319 
L 199.505455 274.427842 
L 209.978182 271.169635 
L 220.450909 267.6787 
L 230.923636 263.955036 
L 241.396364 259.998642 
L 251.869091 255.80952 
L 262.341818 251.387669 
L 272.814545 246.733088 
L 283.287273 241.845779 
L 293.76 236.72574 
L 304.232727 231.372973 
L 314.705455 225.787476 
L 325.178182 219.969251 
L 335.650909 213.918296 
L 346.123636 207.634612 
L 356.596364 201.1182 
L 367.069091 194.369058 
L 377.541818 187.387188 
L 388.014545 180.172588 
L 398.487273 172.725259 
" clip-path="url(#p1320314d8d)" style="fill: none; stroke: #ff7f0e; stroke-width: 1.5; stroke-linecap: square"/>
   </g>
   <g id="line2d_16">
    <path d="M 73.832727 295.431636 
L 84.305455 295.140725 
L 94.778182 294.733449 
L 105.250909 294.209809 
L 115.723636 293.569804 
L 126.196364 292.813434 
L 136.669091 291.940701 
L 147.141818 290.951602 
L 157.614545 289.846139 
L 168.087273 288.624312 
L 178.56 287.28612 
L 189.032727 285.831564 
L 199.505455 284.260643 
L 209.978182 282.573357 
L 220.450909 280.769708 
L 230.923636 278.849693 
L 241.396364 276.813314 
L 251.869091 274.660571 
L 262.341818 272.391463 
L 272.814545 270.00599 
L 283.287273 267.504153 
L 293.76 264.885952 
L 304.232727 262.151386 
L 314.705455 259.300455 
L 325.178182 256.33316 
L 335.650909 253.249501 
L 346.123636 250.049477 
L 356.596364 246.733088 
L 367.069091 243.300335 
L 377.541818 239.751217 
L 388.014545 236.085735 
L 398.487273 232.303889 
" clip-path="url(#p1320314d8d)" style="fill: none; stroke: #2ca02c; stroke-width: 1.5; stroke-linecap: square"/>
   </g>
   <g id="line2d_17">
    <path d="M 73.832727 295.460727 
L 84.305455 295.257089 
L 94.778182 294.995269 
L 105.250909 294.675267 
L 115.723636 294.297082 
L 126.196364 293.860715 
L 136.669091 293.366166 
L 147.141818 292.813434 
L 157.614545 292.202521 
L 168.087273 291.533425 
L 178.56 290.806147 
L 189.032727 290.020686 
L 199.505455 289.177043 
L 209.978182 288.275219 
L 220.450909 287.315211 
L 230.923636 286.297022 
L 241.396364 285.22065 
L 251.869091 284.086096 
L 262.341818 282.89336 
L 272.814545 281.642441 
L 283.287273 280.333341 
L 293.76 278.966058 
L 304.232727 277.540592 
L 314.705455 276.056945 
L 325.178182 274.515115 
L 335.650909 272.915103 
L 346.123636 271.256909 
L 356.596364 269.540532 
L 367.069091 267.765973 
L 377.541818 265.933232 
L 388.014545 264.042309 
L 398.487273 262.093204 
" clip-path="url(#p1320314d8d)" style="fill: none; stroke: #d62728; stroke-width: 1.5; stroke-linecap: square"/>
   </g>
   <g id="line2d_18">
    <path d="M 73.832727 295.475273 
L 84.305455 295.315271 
L 94.778182 295.126179 
L 105.250909 294.907996 
L 115.723636 294.660721 
L 126.196364 294.384355 
L 136.669091 294.078899 
L 147.141818 293.744351 
L 157.614545 293.380711 
L 168.087273 292.987981 
L 178.56 292.56616 
L 189.032727 292.115247 
L 199.505455 291.635244 
L 209.978182 291.126149 
L 220.450909 290.587963 
L 230.923636 290.020686 
L 241.396364 289.424318 
L 251.869091 288.798859 
L 262.341818 288.144308 
L 272.814545 287.460667 
L 283.287273 286.747934 
L 293.76 286.006111 
L 304.232727 285.235196 
L 314.705455 284.43519 
L 325.178182 283.606093 
L 335.650909 282.747904 
L 346.123636 281.860625 
L 356.596364 280.944254 
L 367.069091 279.998793 
L 377.541818 279.02424 
L 388.014545 278.020596 
L 398.487273 276.987861 
" clip-path="url(#p1320314d8d)" style="fill: none; stroke: #9467bd; stroke-width: 1.5; stroke-linecap: square"/>
   </g>
   <g id="line2d_19">
    <path d="M 73.832727 295.482545 
L 84.305455 295.344363 
L 94.778182 295.191634 
L 105.250909 295.02436 
L 115.723636 294.842541 
L 126.196364 294.646175 
L 136.669091 294.435265 
L 147.141818 294.209809 
L 157.614545 293.969807 
L 168.087273 293.715259 
L 178.56 293.446166 
L 189.032727 293.162528 
L 199.505455 292.864344 
L 209.978182 292.551614 
L 220.450909 292.224339 
L 230.923636 291.882518 
L 241.396364 291.526152 
L 251.869091 291.15524 
L 262.341818 290.769783 
L 272.814545 290.36978 
L 283.287273 289.955231 
L 293.76 289.526137 
L 304.232727 289.082497 
L 314.705455 288.624312 
L 325.178182 288.151581 
L 335.650909 287.664305 
L 346.123636 287.162483 
L 356.596364 286.646115 
L 367.069091 286.115202 
L 377.541818 285.569744 
L 388.014545 285.009739 
L 398.487273 284.43519 
" clip-path="url(#p1320314d8d)" style="fill: none; stroke: #8c564b; stroke-width: 1.5; stroke-linecap: square"/>
   </g>
   <g id="line2d_20">
    <path d="M 73.832727 295.486182 
L 84.305455 295.358908 
L 94.778182 295.224362 
L 105.250909 295.082542 
L 115.723636 294.93345 
L 126.196364 294.777086 
L 136.669091 294.613448 
L 147.141818 294.442538 
L 157.614545 294.264354 
L 168.087273 294.078899 
L 178.56 293.88617 
L 189.032727 293.686168 
L 199.505455 293.478894 
L 209.978182 293.264347 
L 220.450909 293.042527 
L 230.923636 292.813434 
L 241.396364 292.577069 
L 251.869091 292.333431 
L 262.341818 292.08252 
L 272.814545 291.824336 
L 283.287273 291.55888 
L 293.76 291.28615 
L 304.232727 291.006148 
L 314.705455 290.718873 
L 325.178182 290.424326 
L 335.650909 290.122505 
L 346.123636 289.813412 
L 356.596364 289.497046 
L 367.069091 289.173407 
L 377.541818 288.842496 
L 388.014545 288.504311 
L 398.487273 288.158854 
" clip-path="url(#p1320314d8d)" style="fill: none; stroke: #e377c2; stroke-width: 1.5; stroke-linecap: square"/>
   </g>
   <g id="line2d_21">
    <path d="M 73.832727 295.488 
L 84.305455 295.366181 
L 94.778182 295.240725 
L 105.250909 295.111634 
L 115.723636 294.978905 
L 126.196364 294.842541 
L 136.669091 294.70254 
L 147.141818 294.558902 
L 157.614545 294.411628 
L 168.087273 294.260718 
L 178.56 294.106171 
L 189.032727 293.947988 
L 199.505455 293.786169 
L 209.978182 293.620713 
L 220.450909 293.451621 
L 230.923636 293.278892 
L 241.396364 293.102528 
L 251.869091 292.922526 
L 262.341818 292.738888 
L 272.814545 292.551614 
L 283.287273 292.360704 
L 293.76 292.166157 
L 304.232727 291.967974 
L 314.705455 291.766154 
L 325.178182 291.560698 
L 335.650909 291.351605 
L 346.123636 291.138876 
L 356.596364 290.922511 
L 367.069091 290.702509 
L 377.541818 290.478871 
L 388.014545 290.251597 
L 398.487273 290.020686 
" clip-path="url(#p1320314d8d)" style="fill: none; stroke: #7f7f7f; stroke-width: 1.5; stroke-linecap: square"/>
   </g>
   <g id="patch_3">
    <path d="M 57.6 307.584 
L 57.6 41.472 
" style="fill: none; stroke: #000000; stroke-width: 0.8; stroke-linejoin: miter; stroke-linecap: square"/>
   </g>
   <g id="patch_4">
    <path d="M 414.72 307.584 
L 414.72 41.472 
" style="fill: none; stroke: #000000; stroke-width: 0.8; stroke-linejoin: miter; stroke-linecap: square"/>
   </g>
   <g id="patch_5">
    <path d="M 57.6 307.584 
L 414.72 307.584 
" style="fill: none; stroke: #000000; stroke-width: 0.8; stroke-linejoin: miter; stroke-linecap: square"/>
   </g>
   <g id="patch_6">
    <path d="M 57.6 41.472 
L 414.72 41.472 
" style="fill: none; stroke: #000000; stroke-width: 0.8; stroke-linejoin: miter; stroke-linecap: square"/>
   </g>
   <g id="text_16">
    <!-- Aumentando o valor de $n$, para um valor fixo $p$ -->
    <g transform="translate(95.4 35.472)scale(0.12 -0.12)">
     <defs>
      <path id="DejaVuSans-41" d="M 2188 4044 
L 1331 1722 
L 3047 1722 
L 2188 4044 
z
M 1831 4666 
L 2547 4666 
L 4325 0 
L 3669 0 
L 3244 1197 
L 1141 1197 
L 716 0 
L 50 0 
L 1831 4666 
z
" transform="scale(0.015625)"/>
      <path id="DejaVuSans-76" d="M 191 3500 
L 800 3500 
L 1894 563 
L 2988 3500 
L 3597 3500 
L 2284 0 
L 1503 0 
L 191 3500 
z
" transform="scale(0.015625)"/>
      <path id="DejaVuSans-Oblique-6e" d="M 3566 2113 
L 3156 0 
L 2578 0 
L 2988 2091 
Q 3016 2238 3031 2350 
Q 3047 2463 3047 2528 
Q 3047 2791 2881 2937 
Q 2716 3084 2419 3084 
Q 1956 3084 1622 2776 
Q 1288 2469 1184 1941 
L 800 0 
L 225 0 
L 903 3500 
L 1478 3500 
L 1363 2950 
Q 1603 3253 1940 3418 
Q 2278 3584 2650 3584 
Q 3113 3584 3367 3334 
Q 3622 3084 3622 2631 
Q 3622 2519 3608 2391 
Q 3594 2263 3566 2113 
z
" transform="scale(0.015625)"/>
      <path id="DejaVuSans-2c" d="M 750 794 
L 1409 794 
L 1409 256 
L 897 -744 
L 494 -744 
L 750 256 
L 750 794 
z
" transform="scale(0.015625)"/>
      <path id="DejaVuSans-66" d="M 2375 4863 
L 2375 4384 
L 1825 4384 
Q 1516 4384 1395 4259 
Q 1275 4134 1275 3809 
L 1275 3500 
L 2222 3500 
L 2222 3053 
L 1275 3053 
L 1275 0 
L 697 0 
L 697 3053 
L 147 3053 
L 147 3500 
L 697 3500 
L 697 3744 
Q 697 4328 969 4595 
Q 1241 4863 1831 4863 
L 2375 4863 
z
" transform="scale(0.015625)"/>
      <path id="DejaVuSans-Oblique-70" d="M 3175 2156 
Q 3175 2616 2975 2859 
Q 2775 3103 2400 3103 
Q 2144 3103 1911 2972 
Q 1678 2841 1497 2591 
Q 1319 2344 1212 1994 
Q 1106 1644 1106 1300 
Q 1106 863 1306 627 
Q 1506 391 1875 391 
Q 2147 391 2380 519 
Q 2613 647 2778 891 
Q 2956 1147 3065 1494 
Q 3175 1841 3175 2156 
z
M 1394 2969 
Q 1625 3272 1939 3428 
Q 2253 3584 2638 3584 
Q 3175 3584 3472 3232 
Q 3769 2881 3769 2247 
Q 3769 1728 3584 1258 
Q 3400 788 3053 416 
Q 2822 169 2531 39 
Q 2241 -91 1919 -91 
Q 1547 -91 1294 64 
Q 1041 219 916 525 
L 556 -1331 
L -19 -1331 
L 922 3500 
L 1497 3500 
L 1394 2969 
z
" transform="scale(0.015625)"/>
     </defs>
     <use xlink:href="#DejaVuSans-41" transform="translate(0 0.015625)"/>
     <use xlink:href="#DejaVuSans-75" transform="translate(68.408203 0.015625)"/>
     <use xlink:href="#DejaVuSans-6d" transform="translate(131.787109 0.015625)"/>
     <use xlink:href="#DejaVuSans-65" transform="translate(229.199219 0.015625)"/>
     <use xlink:href="#DejaVuSans-6e" transform="translate(290.722656 0.015625)"/>
     <use xlink:href="#DejaVuSans-74" transform="translate(354.101562 0.015625)"/>
     <use xlink:href="#DejaVuSans-61" transform="translate(393.310547 0.015625)"/>
     <use xlink:href="#DejaVuSans-6e" transform="translate(454.589844 0.015625)"/>
     <use xlink:href="#DejaVuSans-64" transform="translate(517.96875 0.015625)"/>
     <use xlink:href="#DejaVuSans-6f" transform="translate(581.445312 0.015625)"/>
     <use xlink:href="#DejaVuSans-20" transform="translate(642.626953 0.015625)"/>
     <use xlink:href="#DejaVuSans-6f" transform="translate(674.414062 0.015625)"/>
     <use xlink:href="#DejaVuSans-20" transform="translate(735.595703 0.015625)"/>
     <use xlink:href="#DejaVuSans-76" transform="translate(767.382812 0.015625)"/>
     <use xlink:href="#DejaVuSans-61" transform="translate(826.5625 0.015625)"/>
     <use xlink:href="#DejaVuSans-6c" transform="translate(887.841797 0.015625)"/>
     <use xlink:href="#DejaVuSans-6f" transform="translate(915.625 0.015625)"/>
     <use xlink:href="#DejaVuSans-72" transform="translate(976.806641 0.015625)"/>
     <use xlink:href="#DejaVuSans-20" transform="translate(1017.919922 0.015625)"/>
     <use xlink:href="#DejaVuSans-64" transform="translate(1049.707031 0.015625)"/>
     <use xlink:href="#DejaVuSans-65" transform="translate(1113.183594 0.015625)"/>
     <use xlink:href="#DejaVuSans-20" transform="translate(1174.707031 0.015625)"/>
     <use xlink:href="#DejaVuSans-Oblique-6e" transform="translate(1206.494141 0.015625)"/>
     <use xlink:href="#DejaVuSans-2c" transform="translate(1269.873047 0.015625)"/>
     <use xlink:href="#DejaVuSans-20" transform="translate(1301.660156 0.015625)"/>
     <use xlink:href="#DejaVuSans-70" transform="translate(1333.447266 0.015625)"/>
     <use xlink:href="#DejaVuSans-61" transform="translate(1396.923828 0.015625)"/>
     <use xlink:href="#DejaVuSans-72" transform="translate(1458.203125 0.015625)"/>
     <use xlink:href="#DejaVuSans-61" transform="translate(1499.316406 0.015625)"/>
     <use xlink:href="#DejaVuSans-20" transform="translate(1560.595703 0.015625)"/>
     <use xlink:href="#DejaVuSans-75" transform="translate(1592.382812 0.015625)"/>
     <use xlink:href="#DejaVuSans-6d" transform="translate(1655.761719 0.015625)"/>
     <use xlink:href="#DejaVuSans-20" transform="translate(1753.173828 0.015625)"/>
     <use xlink:href="#DejaVuSans-76" transform="translate(1784.960938 0.015625)"/>
     <use xlink:href="#DejaVuSans-61" transform="translate(1844.140625 0.015625)"/>
     <use xlink:href="#DejaVuSans-6c" transform="translate(1905.419922 0.015625)"/>
     <use xlink:href="#DejaVuSans-6f" transform="translate(1933.203125 0.015625)"/>
     <use xlink:href="#DejaVuSans-72" transform="translate(1994.384766 0.015625)"/>
     <use xlink:href="#DejaVuSans-20" transform="translate(2035.498047 0.015625)"/>
     <use xlink:href="#DejaVuSans-66" transform="translate(2067.285156 0.015625)"/>
     <use xlink:href="#DejaVuSans-69" transform="translate(2102.490234 0.015625)"/>
     <use xlink:href="#DejaVuSans-78" transform="translate(2130.273438 0.015625)"/>
     <use xlink:href="#DejaVuSans-6f" transform="translate(2189.453125 0.015625)"/>
     <use xlink:href="#DejaVuSans-20" transform="translate(2250.634766 0.015625)"/>
     <use xlink:href="#DejaVuSans-Oblique-70" transform="translate(2282.421875 0.015625)"/>
    </g>
   </g>
   <g id="legend_1">
    <g id="patch_7">
     <path d="M 64.6 167.0595 
L 134.4 167.0595 
Q 136.4 167.0595 136.4 165.0595 
L 136.4 48.472 
Q 136.4 46.472 134.4 46.472 
L 64.6 46.472 
Q 62.6 46.472 62.6 48.472 
L 62.6 165.0595 
Q 62.6 167.0595 64.6 167.0595 
z
" style="fill: #ffffff; opacity: 0.8; stroke: #cccccc; stroke-linejoin: miter"/>
    </g>
    <g id="line2d_22">
     <path d="M 66.6 54.570437 
L 76.6 54.570437 
L 86.6 54.570437 
" style="fill: none; stroke: #1f77b4; stroke-width: 1.5; stroke-linecap: square"/>
    </g>
    <g id="text_17">
     <!-- $p=$1 -->
     <g transform="translate(94.6 58.070437)scale(0.1 -0.1)">
      <defs>
       <path id="DejaVuSans-3d" d="M 678 2906 
L 4684 2906 
L 4684 2381 
L 678 2381 
L 678 2906 
z
M 678 1631 
L 4684 1631 
L 4684 1100 
L 678 1100 
L 678 1631 
z
" transform="scale(0.015625)"/>
      </defs>
      <use xlink:href="#DejaVuSans-Oblique-70" transform="translate(0 0.09375)"/>
      <use xlink:href="#DejaVuSans-3d" transform="translate(82.958984 0.09375)"/>
      <use xlink:href="#DejaVuSans-31" transform="translate(186.230469 0.09375)"/>
     </g>
    </g>
    <g id="line2d_23">
     <path d="M 66.6 69.268875 
L 76.6 69.268875 
L 86.6 69.268875 
" style="fill: none; stroke: #ff7f0e; stroke-width: 1.5; stroke-linecap: square"/>
    </g>
    <g id="text_18">
     <!-- $p=$2 -->
     <g transform="translate(94.6 72.768875)scale(0.1 -0.1)">
      <use xlink:href="#DejaVuSans-Oblique-70" transform="translate(0 0.78125)"/>
      <use xlink:href="#DejaVuSans-3d" transform="translate(82.958984 0.78125)"/>
      <use xlink:href="#DejaVuSans-32" transform="translate(186.230469 0.78125)"/>
     </g>
    </g>
    <g id="line2d_24">
     <path d="M 66.6 83.967312 
L 76.6 83.967312 
L 86.6 83.967312 
" style="fill: none; stroke: #2ca02c; stroke-width: 1.5; stroke-linecap: square"/>
    </g>
    <g id="text_19">
     <!-- $p=$4 -->
     <g transform="translate(94.6 87.467312)scale(0.1 -0.1)">
      <use xlink:href="#DejaVuSans-Oblique-70" transform="translate(0 0.09375)"/>
      <use xlink:href="#DejaVuSans-3d" transform="translate(82.958984 0.09375)"/>
      <use xlink:href="#DejaVuSans-34" transform="translate(186.230469 0.09375)"/>
     </g>
    </g>
    <g id="line2d_25">
     <path d="M 66.6 98.66575 
L 76.6 98.66575 
L 86.6 98.66575 
" style="fill: none; stroke: #d62728; stroke-width: 1.5; stroke-linecap: square"/>
    </g>
    <g id="text_20">
     <!-- $p=$8 -->
     <g transform="translate(94.6 102.16575)scale(0.1 -0.1)">
      <use xlink:href="#DejaVuSans-Oblique-70" transform="translate(0 0.78125)"/>
      <use xlink:href="#DejaVuSans-3d" transform="translate(82.958984 0.78125)"/>
      <use xlink:href="#DejaVuSans-38" transform="translate(186.230469 0.78125)"/>
     </g>
    </g>
    <g id="line2d_26">
     <path d="M 66.6 113.364187 
L 76.6 113.364187 
L 86.6 113.364187 
" style="fill: none; stroke: #9467bd; stroke-width: 1.5; stroke-linecap: square"/>
    </g>
    <g id="text_21">
     <!-- $p=$16 -->
     <g transform="translate(94.6 116.864187)scale(0.1 -0.1)">
      <use xlink:href="#DejaVuSans-Oblique-70" transform="translate(0 0.78125)"/>
      <use xlink:href="#DejaVuSans-3d" transform="translate(82.958984 0.78125)"/>
      <use xlink:href="#DejaVuSans-31" transform="translate(186.230469 0.78125)"/>
      <use xlink:href="#DejaVuSans-36" transform="translate(249.853516 0.78125)"/>
     </g>
    </g>
    <g id="line2d_27">
     <path d="M 66.6 128.062625 
L 76.6 128.062625 
L 86.6 128.062625 
" style="fill: none; stroke: #8c564b; stroke-width: 1.5; stroke-linecap: square"/>
    </g>
    <g id="text_22">
     <!-- $p=$32 -->
     <g transform="translate(94.6 131.562625)scale(0.1 -0.1)">
      <use xlink:href="#DejaVuSans-Oblique-70" transform="translate(0 0.78125)"/>
      <use xlink:href="#DejaVuSans-3d" transform="translate(82.958984 0.78125)"/>
      <use xlink:href="#DejaVuSans-33" transform="translate(186.230469 0.78125)"/>
      <use xlink:href="#DejaVuSans-32" transform="translate(249.853516 0.78125)"/>
     </g>
    </g>
    <g id="line2d_28">
     <path d="M 66.6 142.761062 
L 76.6 142.761062 
L 86.6 142.761062 
" style="fill: none; stroke: #e377c2; stroke-width: 1.5; stroke-linecap: square"/>
    </g>
    <g id="text_23">
     <!-- $p=$64 -->
     <g transform="translate(94.6 146.261062)scale(0.1 -0.1)">
      <use xlink:href="#DejaVuSans-Oblique-70" transform="translate(0 0.78125)"/>
      <use xlink:href="#DejaVuSans-3d" transform="translate(82.958984 0.78125)"/>
      <use xlink:href="#DejaVuSans-36" transform="translate(186.230469 0.78125)"/>
      <use xlink:href="#DejaVuSans-34" transform="translate(249.853516 0.78125)"/>
     </g>
    </g>
    <g id="line2d_29">
     <path d="M 66.6 157.4595 
L 76.6 157.4595 
L 86.6 157.4595 
" style="fill: none; stroke: #7f7f7f; stroke-width: 1.5; stroke-linecap: square"/>
    </g>
    <g id="text_24">
     <!-- $p=$128 -->
     <g transform="translate(94.6 160.9595)scale(0.1 -0.1)">
      <use xlink:href="#DejaVuSans-Oblique-70" transform="translate(0 0.78125)"/>
      <use xlink:href="#DejaVuSans-3d" transform="translate(82.958984 0.78125)"/>
      <use xlink:href="#DejaVuSans-31" transform="translate(186.230469 0.78125)"/>
      <use xlink:href="#DejaVuSans-32" transform="translate(249.853516 0.78125)"/>
      <use xlink:href="#DejaVuSans-38" transform="translate(313.476562 0.78125)"/>
     </g>
    </g>
   </g>
  </g>
 </g>
 <defs>
  <clipPath id="p1320314d8d">
   <rect x="57.6" y="41.472" width="357.12" height="266.112"/>
  </clipPath>
 </defs>
</svg>
